<svg xmlns="http://www.w3.org/2000/svg" xmlns:xlink="http://www.w3.org/1999/xlink" width="500" zoomAndPan="magnify" viewBox="0 0 375 374.999991" height="500" preserveAspectRatio="xMidYMid meet" version="1.0"><defs><g/><clipPath id="a03717a4b2"><path d="M 54 1.652344 L 57.929688 1.652344 L 57.929688 113.921875 L 54 113.921875 Z M 54 1.652344 " clip-rule="nonzero"/></clipPath><clipPath id="52ead05b7b"><path d="M 63 43 L 342.320312 43 L 342.320312 106 L 63 106 Z M 63 43 " clip-rule="nonzero"/></clipPath><clipPath id="7c075b8c70"><rect x="0" width="280" y="0" height="63"/></clipPath><clipPath id="9370abd53f"><path d="M 0.078125 5.21875 L 49 5.21875 L 49 110 L 0.078125 110 Z M 0.078125 5.21875 " clip-rule="nonzero"/></clipPath><clipPath id="f71296cbb2"><rect x="0" width="343" y="0" height="114"/></clipPath></defs><g transform="matrix(1, 0, 0, 1, 16, 134)"><g clip-path="url(#f71296cbb2)"><g clip-path="url(#a03717a4b2)"><path fill="#00089f" d="M 54.960938 1.652344 L 57.875 1.652344 L 57.875 113.652344 L 54.960938 113.652344 Z M 54.960938 1.652344 " fill-opacity="1" fill-rule="nonzero"/></g><g clip-path="url(#52ead05b7b)"><g transform="matrix(1, 0, 0, 1, 63, 43)"><g clip-path="url(#7c075b8c70)"><g fill="#00089f" fill-opacity="1"><g transform="translate(0.455131, 47.502171)"><g><path d="M 32.515625 -7.875 L 32.515625 0 L 3.59375 0 L 3.59375 -36 L 31.84375 -36 L 31.84375 -28.140625 L 13.6875 -28.140625 L 13.6875 -22.0625 L 29.671875 -22.0625 L 29.671875 -14.453125 L 13.6875 -14.453125 L 13.6875 -7.875 Z M 32.515625 -7.875 "/></g></g></g><g fill="#00089f" fill-opacity="1"><g transform="translate(29.983665, 47.502171)"><g><path d="M 3.59375 -36 L 20.625 -36 C 24.570312 -36 28.070312 -35.257812 31.125 -33.78125 C 34.175781 -32.3125 36.539062 -30.222656 38.21875 -27.515625 C 39.894531 -24.804688 40.734375 -21.632812 40.734375 -18 C 40.734375 -14.363281 39.894531 -11.191406 38.21875 -8.484375 C 36.539062 -5.773438 34.175781 -3.679688 31.125 -2.203125 C 28.070312 -0.734375 24.570312 0 20.625 0 L 3.59375 0 Z M 20.21875 -8.125 C 23.300781 -8.125 25.773438 -9 27.640625 -10.75 C 29.515625 -12.5 30.453125 -14.914062 30.453125 -18 C 30.453125 -21.082031 29.515625 -23.5 27.640625 -25.25 C 25.773438 -27 23.300781 -27.875 20.21875 -27.875 L 13.78125 -27.875 L 13.78125 -8.125 Z M 20.21875 -8.125 "/></g></g></g><g fill="#00089f" fill-opacity="1"><g transform="translate(67.434471, 47.502171)"><g><path d="M 27.71875 -18.78125 L 36.71875 -18.78125 L 36.71875 -3.859375 C 34.664062 -2.378906 32.300781 -1.242188 29.625 -0.453125 C 26.945312 0.328125 24.273438 0.71875 21.609375 0.71875 C 17.835938 0.71875 14.441406 -0.078125 11.421875 -1.671875 C 8.398438 -3.265625 6.03125 -5.484375 4.3125 -8.328125 C 2.601562 -11.179688 1.75 -14.40625 1.75 -18 C 1.75 -21.601562 2.601562 -24.828125 4.3125 -27.671875 C 6.03125 -30.515625 8.414062 -32.734375 11.46875 -34.328125 C 14.519531 -35.921875 17.96875 -36.71875 21.8125 -36.71875 C 25.164062 -36.71875 28.179688 -36.148438 30.859375 -35.015625 C 33.535156 -33.890625 35.765625 -32.265625 37.546875 -30.140625 L 31.0625 -24.28125 C 28.632812 -26.957031 25.722656 -28.296875 22.328125 -28.296875 C 19.234375 -28.296875 16.742188 -27.359375 14.859375 -25.484375 C 12.972656 -23.617188 12.03125 -21.125 12.03125 -18 C 12.03125 -16.007812 12.457031 -14.234375 13.3125 -12.671875 C 14.175781 -11.117188 15.378906 -9.90625 16.921875 -9.03125 C 18.460938 -8.15625 20.226562 -7.71875 22.21875 -7.71875 C 24.175781 -7.71875 26.007812 -8.113281 27.71875 -8.90625 Z M 27.71875 -18.78125 "/></g></g></g><g fill="#00089f" fill-opacity="1"><g transform="translate(102.004451, 47.502171)"><g><path d="M 32.515625 -7.875 L 32.515625 0 L 3.59375 0 L 3.59375 -36 L 31.84375 -36 L 31.84375 -28.140625 L 13.6875 -28.140625 L 13.6875 -22.0625 L 29.671875 -22.0625 L 29.671875 -14.453125 L 13.6875 -14.453125 L 13.6875 -7.875 Z M 32.515625 -7.875 "/></g></g></g><g fill="#00089f" fill-opacity="1"><g transform="translate(131.532985, 47.502171)"><g/></g></g><g fill="#00089f" fill-opacity="1"><g transform="translate(141.461566, 47.502171)"><g><path d="M 36.109375 0 L 36 -19.078125 L 26.75 -3.546875 L 22.21875 -3.546875 L 13.015625 -18.5625 L 13.015625 0 L 3.59375 0 L 3.59375 -36 L 11.984375 -36 L 24.640625 -15.21875 L 36.984375 -36 L 45.375 -36 L 45.46875 0 Z M 36.109375 0 "/></g></g></g><g fill="#00089f" fill-opacity="1"><g transform="translate(185.497126, 47.502171)"><g><path d="M 3.59375 -36 L 13.78125 -36 L 13.78125 0 L 3.59375 0 Z M 3.59375 -36 "/></g></g></g><g fill="#00089f" fill-opacity="1"><g transform="translate(197.894982, 47.502171)"><g><path d="M 37.859375 -36 L 37.859375 0 L 29.46875 0 L 13.578125 -19.1875 L 13.578125 0 L 3.59375 0 L 3.59375 -36 L 11.984375 -36 L 27.875 -16.8125 L 27.875 -36 Z M 37.859375 -36 "/></g></g></g><g fill="#00089f" fill-opacity="1"><g transform="translate(234.316927, 47.502171)"><g><path d="M 3.59375 -36 L 20.625 -36 C 24.570312 -36 28.070312 -35.257812 31.125 -33.78125 C 34.175781 -32.3125 36.539062 -30.222656 38.21875 -27.515625 C 39.894531 -24.804688 40.734375 -21.632812 40.734375 -18 C 40.734375 -14.363281 39.894531 -11.191406 38.21875 -8.484375 C 36.539062 -5.773438 34.175781 -3.679688 31.125 -2.203125 C 28.070312 -0.734375 24.570312 0 20.625 0 L 3.59375 0 Z M 20.21875 -8.125 C 23.300781 -8.125 25.773438 -9 27.640625 -10.75 C 29.515625 -12.5 30.453125 -14.914062 30.453125 -18 C 30.453125 -21.082031 29.515625 -23.5 27.640625 -25.25 C 25.773438 -27 23.300781 -27.875 20.21875 -27.875 L 13.78125 -27.875 L 13.78125 -8.125 Z M 20.21875 -8.125 "/></g></g></g></g></g></g><g fill="#000000" fill-opacity="1"><g transform="translate(68.807889, 50.037383)"><g><path d="M 38.890625 -36 L 23.296875 0 L 15.078125 0 L -0.46875 -36 L 8.53125 -36 L 19.5 -10.28125 L 30.609375 -36 Z M 38.890625 -36 "/></g></g></g><g fill="#000000" fill-opacity="1"><g transform="translate(102.138152, 50.037383)"><g><path d="M 37.03125 0 L 36.984375 -21.609375 L 26.390625 -3.8125 L 22.625 -3.8125 L 12.09375 -21.140625 L 12.09375 0 L 4.265625 0 L 4.265625 -36 L 11.15625 -36 L 24.640625 -13.625 L 37.90625 -36 L 44.75 -36 L 44.859375 0 Z M 37.03125 0 "/></g></g></g><g fill="#000000" fill-opacity="1"><g transform="translate(146.218679, 50.037383)"><g><path d="M 17.390625 -14.140625 L 12.546875 -9.109375 L 12.546875 0 L 4.265625 0 L 4.265625 -36 L 12.546875 -36 L 12.546875 -19.1875 L 28.5 -36 L 37.75 -36 L 22.84375 -19.953125 L 38.625 0 L 28.90625 0 Z M 17.390625 -14.140625 "/></g></g></g><g fill="#000000" fill-opacity="1"><g transform="translate(66.666787, 109.292167)"><g><path d="M 4.171875 0.15625 C 3.429688 0.15625 2.71875 0.0546875 2.03125 -0.140625 C 1.34375 -0.335938 0.789062 -0.597656 0.375 -0.921875 L 1.109375 -2.546875 C 1.503906 -2.253906 1.976562 -2.019531 2.53125 -1.84375 C 3.082031 -1.664062 3.632812 -1.578125 4.1875 -1.578125 C 4.800781 -1.578125 5.253906 -1.664062 5.546875 -1.84375 C 5.835938 -2.03125 5.984375 -2.273438 5.984375 -2.578125 C 5.984375 -2.796875 5.894531 -2.976562 5.71875 -3.125 C 5.550781 -3.269531 5.332031 -3.382812 5.0625 -3.46875 C 4.789062 -3.5625 4.421875 -3.660156 3.953125 -3.765625 C 3.242188 -3.941406 2.660156 -4.113281 2.203125 -4.28125 C 1.753906 -4.445312 1.367188 -4.71875 1.046875 -5.09375 C 0.722656 -5.46875 0.5625 -5.960938 0.5625 -6.578125 C 0.5625 -7.117188 0.707031 -7.609375 1 -8.046875 C 1.289062 -8.492188 1.734375 -8.84375 2.328125 -9.09375 C 2.921875 -9.351562 3.640625 -9.484375 4.484375 -9.484375 C 5.085938 -9.484375 5.671875 -9.410156 6.234375 -9.265625 C 6.804688 -9.128906 7.304688 -8.925781 7.734375 -8.65625 L 7.0625 -7.03125 C 6.195312 -7.507812 5.335938 -7.75 4.484375 -7.75 C 3.878906 -7.75 3.429688 -7.648438 3.140625 -7.453125 C 2.847656 -7.265625 2.703125 -7.007812 2.703125 -6.6875 C 2.703125 -6.363281 2.867188 -6.125 3.203125 -5.96875 C 3.535156 -5.820312 4.046875 -5.671875 4.734375 -5.515625 C 5.441406 -5.347656 6.019531 -5.179688 6.46875 -5.015625 C 6.925781 -4.847656 7.316406 -4.582031 7.640625 -4.21875 C 7.960938 -3.851562 8.125 -3.359375 8.125 -2.734375 C 8.125 -2.203125 7.972656 -1.710938 7.671875 -1.265625 C 7.378906 -0.828125 6.9375 -0.476562 6.34375 -0.21875 C 5.75 0.03125 5.023438 0.15625 4.171875 0.15625 Z M 4.171875 0.15625 "/></g></g></g><g fill="#000000" fill-opacity="1"><g transform="translate(83.124974, 109.292167)"><g><path d="M 5.625 0.15625 C 4.65625 0.15625 3.78125 -0.0507812 3 -0.46875 C 2.226562 -0.882812 1.617188 -1.457031 1.171875 -2.1875 C 0.734375 -2.925781 0.515625 -3.753906 0.515625 -4.671875 C 0.515625 -5.578125 0.734375 -6.394531 1.171875 -7.125 C 1.617188 -7.863281 2.226562 -8.441406 3 -8.859375 C 3.78125 -9.273438 4.65625 -9.484375 5.625 -9.484375 C 6.59375 -9.484375 7.460938 -9.273438 8.234375 -8.859375 C 9.003906 -8.441406 9.613281 -7.863281 10.0625 -7.125 C 10.507812 -6.394531 10.734375 -5.578125 10.734375 -4.671875 C 10.734375 -3.753906 10.507812 -2.925781 10.0625 -2.1875 C 9.613281 -1.457031 9.003906 -0.882812 8.234375 -0.46875 C 7.460938 -0.0507812 6.59375 0.15625 5.625 0.15625 Z M 5.625 -1.671875 C 6.175781 -1.671875 6.671875 -1.796875 7.109375 -2.046875 C 7.554688 -2.304688 7.90625 -2.660156 8.15625 -3.109375 C 8.414062 -3.566406 8.546875 -4.085938 8.546875 -4.671875 C 8.546875 -5.242188 8.414062 -5.753906 8.15625 -6.203125 C 7.90625 -6.660156 7.554688 -7.015625 7.109375 -7.265625 C 6.671875 -7.523438 6.175781 -7.65625 5.625 -7.65625 C 5.070312 -7.65625 4.570312 -7.523438 4.125 -7.265625 C 3.6875 -7.015625 3.335938 -6.660156 3.078125 -6.203125 C 2.828125 -5.753906 2.703125 -5.242188 2.703125 -4.671875 C 2.703125 -4.085938 2.828125 -3.566406 3.078125 -3.109375 C 3.335938 -2.660156 3.6875 -2.304688 4.125 -2.046875 C 4.570312 -1.796875 5.070312 -1.671875 5.625 -1.671875 Z M 5.625 -1.671875 "/></g></g></g><g fill="#000000" fill-opacity="1"><g transform="translate(102.326059, 109.292167)"><g><path d="M 1.109375 -9.328125 L 3.265625 -9.328125 L 3.265625 -1.765625 L 7.9375 -1.765625 L 7.9375 0 L 1.109375 0 Z M 1.109375 -9.328125 "/></g></g></g><g fill="#000000" fill-opacity="1"><g transform="translate(118.331529, 109.292167)"><g><path d="M 5.25 0.15625 C 3.914062 0.15625 2.878906 -0.207031 2.140625 -0.9375 C 1.398438 -1.675781 1.03125 -2.734375 1.03125 -4.109375 L 1.03125 -9.328125 L 3.1875 -9.328125 L 3.1875 -4.1875 C 3.1875 -2.507812 3.878906 -1.671875 5.265625 -1.671875 C 5.941406 -1.671875 6.457031 -1.875 6.8125 -2.28125 C 7.164062 -2.6875 7.34375 -3.320312 7.34375 -4.1875 L 7.34375 -9.328125 L 9.46875 -9.328125 L 9.46875 -4.109375 C 9.46875 -2.734375 9.097656 -1.675781 8.359375 -0.9375 C 7.617188 -0.207031 6.582031 0.15625 5.25 0.15625 Z M 5.25 0.15625 "/></g></g></g><g fill="#000000" fill-opacity="1"><g transform="translate(136.786972, 109.292167)"><g><path d="M 3.03125 -7.578125 L 0.046875 -7.578125 L 0.046875 -9.328125 L 8.1875 -9.328125 L 8.1875 -7.578125 L 5.203125 -7.578125 L 5.203125 0 L 3.03125 0 Z M 3.03125 -7.578125 "/></g></g></g><g fill="#000000" fill-opacity="1"><g transform="translate(152.978861, 109.292167)"><g><path d="M 1.109375 -9.328125 L 3.265625 -9.328125 L 3.265625 0 L 1.109375 0 Z M 1.109375 -9.328125 "/></g></g></g><g fill="#000000" fill-opacity="1"><g transform="translate(165.309372, 109.292167)"><g><path d="M 5.625 0.15625 C 4.65625 0.15625 3.78125 -0.0507812 3 -0.46875 C 2.226562 -0.882812 1.617188 -1.457031 1.171875 -2.1875 C 0.734375 -2.925781 0.515625 -3.753906 0.515625 -4.671875 C 0.515625 -5.578125 0.734375 -6.394531 1.171875 -7.125 C 1.617188 -7.863281 2.226562 -8.441406 3 -8.859375 C 3.78125 -9.273438 4.65625 -9.484375 5.625 -9.484375 C 6.59375 -9.484375 7.460938 -9.273438 8.234375 -8.859375 C 9.003906 -8.441406 9.613281 -7.863281 10.0625 -7.125 C 10.507812 -6.394531 10.734375 -5.578125 10.734375 -4.671875 C 10.734375 -3.753906 10.507812 -2.925781 10.0625 -2.1875 C 9.613281 -1.457031 9.003906 -0.882812 8.234375 -0.46875 C 7.460938 -0.0507812 6.59375 0.15625 5.625 0.15625 Z M 5.625 -1.671875 C 6.175781 -1.671875 6.671875 -1.796875 7.109375 -2.046875 C 7.554688 -2.304688 7.90625 -2.660156 8.15625 -3.109375 C 8.414062 -3.566406 8.546875 -4.085938 8.546875 -4.671875 C 8.546875 -5.242188 8.414062 -5.753906 8.15625 -6.203125 C 7.90625 -6.660156 7.554688 -7.015625 7.109375 -7.265625 C 6.671875 -7.523438 6.175781 -7.65625 5.625 -7.65625 C 5.070312 -7.65625 4.570312 -7.523438 4.125 -7.265625 C 3.6875 -7.015625 3.335938 -6.660156 3.078125 -6.203125 C 2.828125 -5.753906 2.703125 -5.242188 2.703125 -4.671875 C 2.703125 -4.085938 2.828125 -3.566406 3.078125 -3.109375 C 3.335938 -2.660156 3.6875 -2.304688 4.125 -2.046875 C 4.570312 -1.796875 5.070312 -1.671875 5.625 -1.671875 Z M 5.625 -1.671875 "/></g></g></g><g fill="#000000" fill-opacity="1"><g transform="translate(184.510457, 109.292167)"><g><path d="M 9.65625 -9.328125 L 9.65625 0 L 7.890625 0 L 3.234375 -5.671875 L 3.234375 0 L 1.109375 0 L 1.109375 -9.328125 L 2.890625 -9.328125 L 7.53125 -3.671875 L 7.53125 -9.328125 Z M 9.65625 -9.328125 "/></g></g></g><g fill="#000000" fill-opacity="1"><g transform="translate(203.232198, 109.292167)"><g><path d="M 4.171875 0.15625 C 3.429688 0.15625 2.71875 0.0546875 2.03125 -0.140625 C 1.34375 -0.335938 0.789062 -0.597656 0.375 -0.921875 L 1.109375 -2.546875 C 1.503906 -2.253906 1.976562 -2.019531 2.53125 -1.84375 C 3.082031 -1.664062 3.632812 -1.578125 4.1875 -1.578125 C 4.800781 -1.578125 5.253906 -1.664062 5.546875 -1.84375 C 5.835938 -2.03125 5.984375 -2.273438 5.984375 -2.578125 C 5.984375 -2.796875 5.894531 -2.976562 5.71875 -3.125 C 5.550781 -3.269531 5.332031 -3.382812 5.0625 -3.46875 C 4.789062 -3.5625 4.421875 -3.660156 3.953125 -3.765625 C 3.242188 -3.941406 2.660156 -4.113281 2.203125 -4.28125 C 1.753906 -4.445312 1.367188 -4.71875 1.046875 -5.09375 C 0.722656 -5.46875 0.5625 -5.960938 0.5625 -6.578125 C 0.5625 -7.117188 0.707031 -7.609375 1 -8.046875 C 1.289062 -8.492188 1.734375 -8.84375 2.328125 -9.09375 C 2.921875 -9.351562 3.640625 -9.484375 4.484375 -9.484375 C 5.085938 -9.484375 5.671875 -9.410156 6.234375 -9.265625 C 6.804688 -9.128906 7.304688 -8.925781 7.734375 -8.65625 L 7.0625 -7.03125 C 6.195312 -7.507812 5.335938 -7.75 4.484375 -7.75 C 3.878906 -7.75 3.429688 -7.648438 3.140625 -7.453125 C 2.847656 -7.265625 2.703125 -7.007812 2.703125 -6.6875 C 2.703125 -6.363281 2.867188 -6.125 3.203125 -5.96875 C 3.535156 -5.820312 4.046875 -5.671875 4.734375 -5.515625 C 5.441406 -5.347656 6.019531 -5.179688 6.46875 -5.015625 C 6.925781 -4.847656 7.316406 -4.582031 7.640625 -4.21875 C 7.960938 -3.851562 8.125 -3.359375 8.125 -2.734375 C 8.125 -2.203125 7.972656 -1.710938 7.671875 -1.265625 C 7.378906 -0.828125 6.9375 -0.476562 6.34375 -0.21875 C 5.75 0.03125 5.023438 0.15625 4.171875 0.15625 Z M 4.171875 0.15625 "/></g></g></g><g clip-path="url(#9370abd53f)"><path fill="#00089f" d="M 44.265625 108.246094 C 42.378906 109.507812 40.007812 109.996094 37.769531 109.625 C 34.855469 109.199219 32.210938 107.507812 30.382812 105.210938 C 30.050781 104.84375 29.894531 104.335938 29.488281 104.066406 C 27.269531 104.472656 24.898438 104.21875 22.914062 103.09375 C 19.203125 101.148438 17.101562 96.832031 17.414062 92.707031 C 15.796875 92.671875 14.203125 91.988281 13.132812 90.765625 C 11.929688 89.441406 11.363281 87.613281 11.441406 85.824219 C 8.738281 84.230469 6.699219 81.605469 5.785156 78.609375 C 4.890625 75.65625 4.65625 72.445312 5.375 69.433594 C 3.296875 68.226562 1.894531 66.148438 1.136719 63.910156 C -0.03125 60.195312 0.0664062 56.113281 1.273438 52.4375 C 1.332031 52.203125 1.46875 51.953125 1.351562 51.699219 C 0.359375 49.035156 0.105469 46.058594 0.746094 43.28125 C 1.214844 41.277344 2.304688 39.410156 3.957031 38.164062 C 3.488281 35.578125 3.703125 32.78125 4.988281 30.445312 C 5.824219 28.890625 7.320312 27.78125 8.972656 27.238281 C 8.972656 24.886719 9.535156 22.492188 10.761719 20.453125 C 12.046875 18.195312 14.007812 16.347656 16.265625 15.046875 C 19.066406 13.375 22.507812 12.652344 25.714844 13.355469 C 26.203125 12.226562 27 11.253906 27.914062 10.4375 C 29.722656 8.726562 31.976562 7.597656 34.269531 6.703125 C 36.429688 5.886719 38.820312 5.304688 41.097656 5.964844 C 43.683594 6.664062 45.625 8.804688 46.753906 11.15625 C 47.960938 13.527344 48.136719 16.230469 48.175781 18.855469 C 48.234375 23.078125 48.195312 27.316406 48.214844 31.535156 C 48.175781 36.300781 48.253906 41.0625 48.214844 45.847656 C 48.195312 49.328125 48.347656 52.847656 47.746094 56.308594 C 47.550781 57.4375 47.28125 58.5625 46.949219 59.652344 C 47.863281 62.101562 48.195312 64.707031 48.214844 67.3125 C 48.269531 70.445312 48.269531 73.59375 48.253906 76.726562 C 48.269531 79.679688 48.175781 82.734375 46.96875 85.476562 C 46.792969 85.726562 47.007812 85.980469 47.085938 86.234375 C 47.648438 87.554688 47.84375 89.015625 48.019531 90.433594 C 48.234375 92.476562 48.214844 94.515625 48.234375 96.558594 C 48.234375 98.738281 48.253906 100.953125 47.824219 103.09375 C 47.394531 105.171875 46.074219 107.078125 44.265625 108.246094 Z M 38.683594 105.269531 C 38.898438 104.550781 38.472656 103.753906 37.691406 103.65625 C 37.675781 102.742188 37.691406 101.828125 37.710938 100.914062 C 38.957031 99.691406 40.183594 98.464844 41.484375 97.316406 C 41.484375 94.128906 41.425781 90.9375 41.542969 87.75 C 40.335938 86.679688 39.152344 85.574219 37.964844 84.464844 C 37.730469 84.289062 37.75 83.957031 37.730469 83.6875 C 37.691406 80.167969 37.710938 76.648438 37.730469 73.128906 C 39.617188 71.589844 41.210938 69.726562 43.058594 68.148438 C 43.117188 66.769531 43.078125 65.390625 43.078125 64.007812 C 43.078125 59.359375 43.117188 54.714844 43.078125 50.066406 C 42.652344 49.578125 42.105469 49.191406 41.660156 48.722656 C 41.269531 48.394531 40.960938 47.945312 40.511719 47.695312 C 37.207031 47.695312 33.902344 47.695312 30.597656 47.714844 C 30.285156 47.695312 29.914062 47.789062 29.703125 47.5 C 28.066406 45.828125 26.296875 44.289062 24.644531 42.636719 C 23.730469 42.445312 22.777344 42.636719 21.84375 42.539062 C 20.953125 41.742188 20 40.945312 19.21875 40.03125 C 18.324219 40.03125 17.433594 40.050781 16.539062 40.011719 C 15.699219 39.351562 14.960938 38.554688 14.183594 37.816406 C 14.261719 37.386719 14.398438 36.921875 14.203125 36.511719 C 13.875 35.753906 12.726562 35.519531 12.144531 36.125 C 11.480469 36.707031 11.792969 37.875 12.570312 38.183594 C 12.980469 38.4375 13.445312 38.242188 13.816406 38.03125 C 14.652344 38.847656 15.429688 39.722656 16.324219 40.460938 C 17.21875 40.519531 18.132812 40.480469 19.027344 40.480469 C 19.902344 41.355469 20.777344 42.230469 21.730469 42.988281 C 22.605469 43.066406 23.539062 42.851562 24.375 43.066406 C 26.125 44.640625 27.816406 46.253906 29.46875 47.90625 C 29.664062 48.160156 29.992188 48.121094 30.265625 48.140625 C 33.609375 48.121094 36.972656 48.082031 40.320312 48.121094 C 41.136719 48.78125 41.855469 49.542969 42.652344 50.222656 C 42.710938 56.113281 42.632812 62.023438 42.671875 67.917969 C 40.765625 69.492188 39.132812 71.378906 37.265625 72.992188 C 37.34375 76.804688 37.246094 80.613281 37.34375 84.425781 C 38.53125 85.648438 39.832031 86.738281 41.058594 87.90625 C 41.058594 90.9375 41.058594 93.972656 41.039062 97.007812 C 40.746094 97.433594 40.320312 97.746094 39.96875 98.09375 C 39.152344 98.851562 38.433594 99.691406 37.578125 100.429688 C 37.460938 100.566406 37.226562 100.699219 37.265625 100.914062 C 37.246094 101.828125 37.226562 102.722656 37.226562 103.636719 C 36.953125 103.734375 36.644531 103.773438 36.410156 103.96875 C 35.886719 104.550781 35.980469 105.640625 36.703125 106.007812 C 37.402344 106.4375 38.472656 106.085938 38.683594 105.269531 Z M 42.164062 104.335938 C 43.019531 103.773438 42.730469 102.21875 41.660156 102.121094 C 41.679688 101.207031 41.621094 100.273438 41.738281 99.359375 C 42.183594 98.871094 42.691406 98.40625 43.175781 97.960938 C 43.15625 94.382812 43.195312 90.824219 43.15625 87.246094 C 41.894531 86.039062 40.609375 84.851562 39.328125 83.667969 C 39.308594 80.148438 39.328125 76.648438 39.308594 73.128906 C 39.210938 73.128906 39.015625 73.148438 38.917969 73.148438 C 38.820312 74.585938 38.976562 76.042969 38.898438 77.484375 C 38.9375 79.582031 38.898438 81.703125 38.878906 83.804688 C 40.144531 85.046875 41.503906 86.195312 42.730469 87.476562 C 42.769531 90.84375 42.75 94.226562 42.75 97.609375 C 42.378906 98.308594 41.464844 98.679688 41.230469 99.457031 C 41.210938 100.3125 41.25 101.148438 41.210938 102.003906 C 40.609375 102.179688 39.988281 102.625 40.027344 103.324219 C 39.96875 104.414062 41.386719 104.980469 42.164062 104.335938 Z M 34.757812 104.277344 C 35.691406 103.929688 35.75 102.449219 34.875 102.003906 C 34.097656 101.535156 32.890625 102.082031 32.832031 103.035156 C 32.734375 104.007812 33.921875 104.726562 34.757812 104.277344 Z M 46.539062 102.878906 C 47.183594 102.238281 46.929688 101.148438 46.171875 100.71875 C 46.113281 95.859375 46.191406 90.996094 46.171875 86.136719 C 46.171875 85.921875 45.957031 85.804688 45.839844 85.648438 C 44.730469 84.699219 43.742188 83.628906 42.671875 82.636719 C 42.457031 82.421875 42.144531 82.207031 42.203125 81.859375 C 42.203125 78.941406 42.183594 76.042969 42.183594 73.128906 C 43.507812 71.902344 44.769531 70.601562 46.132812 69.414062 C 46.152344 62.589844 46.191406 55.761719 46.152344 48.9375 C 45.335938 48.0625 44.402344 47.285156 43.585938 46.410156 C 44.597656 45.457031 45.550781 44.464844 46.617188 43.570312 C 46.636719 41.683594 46.65625 39.78125 46.636719 37.894531 C 45.957031 37.445312 45.433594 36.824219 44.847656 36.242188 C 43.894531 35.25 42.867188 34.335938 41.914062 33.34375 C 41.835938 32.019531 41.894531 30.699219 41.875 29.355469 C 41.914062 29.105469 41.816406 28.792969 42.011719 28.597656 C 42.496094 28.113281 43 27.644531 43.566406 27.21875 C 43.683594 22.960938 43.585938 18.703125 43.625 14.441406 C 44.265625 14.113281 44.867188 13.433594 44.578125 12.652344 C 44.265625 11.605469 42.59375 11.546875 42.144531 12.519531 C 41.914062 12.945312 42.011719 13.453125 42.242188 13.878906 C 42.144531 13.878906 41.933594 13.898438 41.835938 13.898438 C 41.796875 17.320312 41.855469 20.742188 41.835938 24.164062 C 41.347656 24.691406 40.726562 25.078125 40.300781 25.644531 C 40.203125 26.945312 40.28125 28.269531 40.242188 29.589844 C 39.832031 29.960938 39.425781 30.289062 39.015625 30.660156 C 38.898438 30.796875 38.683594 30.914062 38.742188 31.125 C 38.800781 31.789062 38.78125 32.429688 38.820312 33.089844 C 40.433594 34.433594 41.855469 35.949219 43.410156 37.347656 C 43.820312 37.796875 44.363281 38.144531 44.695312 38.652344 C 44.734375 39.664062 44.695312 40.695312 44.714844 41.722656 C 44.789062 42.308594 44.207031 42.617188 43.894531 43.007812 C 39.675781 42.96875 35.457031 42.96875 31.257812 43.046875 C 27.5625 39.527344 23.945312 35.910156 20.269531 32.390625 C 18.675781 30.757812 17.042969 29.183594 15.46875 27.546875 C 14.824219 27.511719 14.164062 27.492188 13.523438 27.492188 C 13.425781 27.042969 13.308594 26.519531 12.882812 26.285156 C 12.238281 25.992188 11.363281 26.207031 11.035156 26.867188 C 10.585938 27.644531 11.171875 28.734375 12.085938 28.753906 C 12.6875 28.890625 13.152344 28.441406 13.445312 27.976562 C 14.046875 27.976562 14.671875 27.957031 15.273438 27.976562 C 16.050781 28.929688 17.042969 29.6875 17.859375 30.582031 C 18.871094 31.671875 19.960938 32.722656 21.027344 33.75 C 23.441406 36.105469 25.851562 38.457031 28.300781 40.789062 C 29.234375 41.664062 30.128906 42.617188 31.101562 43.453125 C 34.078125 43.433594 37.070312 43.453125 40.046875 43.414062 C 41.328125 43.414062 42.632812 43.378906 43.914062 43.472656 C 44.402344 43.164062 44.808594 42.734375 45.160156 42.289062 C 45.21875 41.121094 45.179688 39.953125 45.199219 38.808594 C 45.277344 38.320312 44.789062 38.070312 44.5 37.777344 C 42.847656 36.222656 41.25 34.644531 39.578125 33.109375 C 39.445312 32.972656 39.25 32.835938 39.289062 32.625 C 39.269531 32.097656 39.25 31.574219 39.328125 31.066406 C 39.675781 30.484375 40.511719 30.328125 40.726562 29.6875 C 40.804688 28.40625 40.6875 27.140625 40.765625 25.855469 C 41.210938 25.332031 41.796875 24.921875 42.300781 24.4375 C 42.28125 20.957031 42.300781 17.476562 42.28125 13.996094 C 42.59375 14.152344 42.90625 14.289062 43.234375 14.382812 C 43.253906 18.585938 43.253906 22.785156 43.214844 27.003906 C 42.652344 27.546875 41.953125 27.957031 41.484375 28.578125 C 41.445312 30.25 41.523438 31.925781 41.484375 33.597656 C 43.195312 34.996094 44.65625 36.667969 46.269531 38.164062 C 46.289062 39.894531 46.269531 41.609375 46.25 43.339844 C 45.238281 44.253906 44.226562 45.183594 43.273438 46.15625 C 42.691406 45.671875 42.242188 45.089844 41.640625 44.621094 C 38.042969 44.601562 34.425781 44.601562 30.808594 44.640625 C 30.382812 44.195312 29.972656 43.726562 29.527344 43.300781 C 25.578125 39.546875 21.671875 35.773438 17.742188 32 C 17.46875 31.671875 17.023438 31.789062 16.632812 31.769531 C 14.980469 31.808594 13.347656 31.730469 11.695312 31.75 C 11.753906 31.867188 11.871094 32.078125 11.929688 32.175781 C 13.640625 32.214844 15.371094 32.175781 17.082031 32.175781 C 17.335938 32.15625 17.488281 32.390625 17.664062 32.527344 C 19.6875 34.472656 21.730469 36.375 23.710938 38.339844 C 25.753906 40.304688 27.835938 42.230469 29.855469 44.214844 C 30.167969 44.484375 30.382812 44.855469 30.75 45.011719 C 34.347656 45.011719 37.945312 44.933594 41.523438 45.03125 C 42.925781 46.351562 44.324219 47.675781 45.703125 49.015625 C 45.800781 55.667969 45.683594 62.316406 45.722656 68.964844 C 45.644531 69.121094 45.550781 69.238281 45.414062 69.355469 C 44.1875 70.523438 42.945312 71.6875 41.757812 72.894531 C 41.660156 74.878906 41.777344 76.878906 41.71875 78.882812 C 41.757812 80.050781 41.640625 81.238281 41.796875 82.402344 C 42.828125 83.335938 43.78125 84.328125 44.808594 85.28125 C 45.140625 85.667969 45.78125 85.941406 45.742188 86.523438 C 45.664062 91.210938 45.761719 95.898438 45.664062 100.566406 C 44.90625 100.527344 44.128906 101.148438 44.246094 101.945312 C 44.265625 103.113281 45.839844 103.695312 46.539062 102.878906 Z M 44.714844 98.445312 C 44.734375 94.515625 44.675781 90.589844 44.714844 86.660156 C 43.371094 85.496094 42.164062 84.191406 40.824219 83.023438 C 40.804688 79.46875 40.785156 75.890625 40.804688 72.332031 C 42.144531 71.164062 43.390625 69.898438 44.675781 68.675781 C 44.730469 62.839844 44.675781 57.007812 44.675781 51.195312 C 44.65625 50.628906 44.75 50.046875 44.65625 49.503906 C 43.507812 48.433594 42.320312 47.402344 41.230469 46.273438 L 41.117188 46.234375 C 37.558594 46.234375 34 46.214844 30.460938 46.273438 C 29.777344 45.730469 29.234375 45.050781 28.574219 44.464844 C 24.683594 40.769531 20.796875 37.078125 16.90625 33.382812 C 15.195312 33.304688 13.484375 33.382812 11.773438 33.34375 C 11.285156 33.03125 10.917969 32.546875 10.46875 32.175781 C 10.527344 31.417969 10.527344 30.660156 10.488281 29.902344 C 10.410156 29.921875 10.238281 29.980469 10.160156 30 C 10.003906 30.757812 10.121094 31.554688 10.023438 32.3125 C 10.46875 32.820312 11.035156 33.246094 11.5 33.730469 C 12.824219 33.789062 14.164062 33.695312 15.488281 33.75 C 16.011719 33.808594 16.652344 33.597656 17.023438 34.0625 C 19.085938 36.046875 21.203125 38.011719 23.246094 40.011719 C 25.578125 42.269531 27.992188 44.425781 30.246094 46.742188 C 31.546875 46.644531 32.851562 46.683594 34.15625 46.664062 C 36.429688 46.664062 38.683594 46.644531 40.941406 46.683594 C 42.050781 47.617188 43.058594 48.683594 44.148438 49.636719 C 44.304688 50.628906 44.167969 51.640625 44.226562 52.652344 C 44.246094 57.6875 44.265625 62.746094 44.246094 67.78125 C 44.207031 68.089844 44.304688 68.480469 44.03125 68.714844 C 42.828125 69.878906 41.542969 70.988281 40.375 72.214844 C 40.375 75.675781 40.394531 79.136719 40.394531 82.597656 C 40.433594 82.851562 40.335938 83.160156 40.53125 83.355469 C 41.796875 84.503906 42.980469 85.707031 44.226562 86.855469 C 44.363281 89.441406 44.246094 92.027344 44.304688 94.613281 C 44.285156 95.859375 44.363281 97.101562 44.246094 98.328125 C 43.703125 98.988281 43 99.515625 42.496094 100.214844 C 42.300781 100.449219 42.457031 100.757812 42.59375 100.992188 C 43 99.863281 44.03125 99.300781 44.714844 98.445312 Z M 29.019531 99.125 C 28.960938 98.738281 28.652344 98.484375 28.359375 98.230469 C 28.359375 97.84375 28.359375 97.453125 28.359375 97.066406 C 29.777344 95.898438 31.023438 94.515625 32.367188 93.253906 C 33.628906 92.046875 34.777344 90.765625 36.117188 89.65625 C 36.605469 90.0625 37.03125 90.550781 37.460938 91.015625 C 36.992188 91.582031 36.449219 92.066406 35.925781 92.59375 C 35.066406 93.429688 34.269531 94.324219 33.316406 95.082031 C 33.316406 95.527344 33.316406 95.996094 33.28125 96.441406 C 33.105469 96.65625 32.773438 96.695312 32.558594 96.890625 C 31.9375 97.394531 32.054688 98.484375 32.714844 98.910156 C 33.375 99.359375 34.386719 99.125 34.71875 98.386719 C 35.066406 97.628906 34.582031 96.65625 33.746094 96.539062 C 33.746094 96.132812 33.667969 95.722656 33.765625 95.316406 C 35.046875 94.089844 36.253906 92.824219 37.539062 91.601562 C 37.847656 91.367188 37.945312 90.863281 37.65625 90.570312 C 37.167969 90.027344 36.585938 89.539062 36.078125 89.015625 C 34.464844 90.472656 32.949219 92.046875 31.414062 93.582031 C 30.265625 94.671875 29.195312 95.878906 27.914062 96.8125 C 27.933594 97.238281 27.933594 97.648438 27.933594 98.074219 C 27.484375 98.132812 26.960938 98.210938 26.667969 98.601562 C 26.085938 99.28125 26.492188 100.488281 27.386719 100.640625 C 28.300781 100.953125 29.214844 100.019531 29.019531 99.125 Z M 24.761719 98.484375 C 25.113281 97.765625 24.722656 96.792969 23.886719 96.636719 C 23.90625 96.015625 23.769531 95.371094 23.945312 94.769531 C 24.507812 94.128906 25.171875 93.601562 25.734375 92.960938 C 25.929688 92.804688 26.085938 92.515625 26.355469 92.554688 C 27.777344 92.535156 29.175781 92.554688 30.597656 92.574219 C 30.847656 92.554688 31.160156 92.632812 31.335938 92.378906 C 32.96875 90.707031 34.660156 89.132812 36.332031 87.496094 C 36.972656 88.160156 37.75 88.722656 38.355469 89.402344 C 38.433594 91.308594 38.433594 93.214844 38.355469 95.121094 C 37.808594 95.257812 37.265625 95.585938 37.1875 96.191406 C 36.992188 96.988281 37.75 97.746094 38.550781 97.6875 C 39.40625 97.609375 40.066406 96.636719 39.714844 95.820312 C 39.578125 95.410156 39.015625 95.390625 38.839844 95.042969 C 38.78125 93.078125 38.839844 91.113281 38.78125 89.132812 C 37.925781 88.449219 37.1875 87.574219 36.292969 86.953125 C 34.582031 88.546875 32.929688 90.179688 31.238281 91.8125 C 31.082031 91.929688 30.945312 92.144531 30.730469 92.125 C 29.117188 92.164062 27.503906 92.105469 25.890625 92.085938 C 25.152344 92.941406 24.335938 93.699219 23.5 94.476562 C 23.34375 95.160156 23.5 95.898438 23.402344 96.597656 C 22.605469 96.65625 21.941406 97.433594 22.175781 98.230469 C 22.449219 99.378906 24.316406 99.574219 24.761719 98.484375 Z M 22.039062 92.359375 C 22.273438 92.007812 22.253906 91.582031 22.175781 91.171875 C 24.996094 91.132812 27.816406 91.054688 30.636719 91.113281 C 30.671875 90.277344 30.652344 89.441406 30.652344 88.605469 C 31.644531 87.652344 32.65625 86.699219 33.648438 85.765625 C 34.425781 85.046875 35.125 84.25 36.019531 83.667969 C 36.019531 80.359375 36.039062 77.074219 36.058594 73.769531 C 36.078125 73.398438 36 73.03125 36.117188 72.679688 C 37.847656 71.125 39.425781 69.414062 41.195312 67.898438 C 41.175781 62.160156 41.195312 56.445312 41.195312 50.707031 C 37.128906 50.6875 33.046875 50.726562 28.980469 50.707031 C 28.046875 49.949219 27.191406 49.09375 26.316406 48.238281 C 25.308594 48.042969 24.21875 48.277344 23.167969 48.179688 C 22.351562 47.519531 21.730469 46.605469 20.816406 46.058594 C 19.433594 46.078125 18.054688 46.15625 16.671875 46.039062 C 15.777344 45.183594 14.84375 44.367188 13.96875 43.492188 C 12.277344 43.378906 10.585938 43.511719 8.894531 43.453125 C 8.894531 43.550781 8.875 43.765625 8.875 43.882812 C 10.410156 43.902344 11.96875 43.84375 13.503906 43.902344 C 13.679688 43.882812 13.835938 43.960938 13.929688 44.097656 C 14.75 44.914062 15.625 45.691406 16.460938 46.488281 C 17.878906 46.605469 19.335938 46.527344 20.757812 46.546875 C 21.574219 47.128906 22.195312 47.945312 22.972656 48.589844 C 23.964844 48.742188 24.976562 48.53125 25.988281 48.628906 C 26.53125 48.996094 26.941406 49.523438 27.445312 49.929688 C 27.933594 50.320312 28.28125 50.863281 28.828125 51.15625 C 32.792969 51.097656 36.742188 51.136719 40.707031 51.117188 C 40.765625 51.894531 40.746094 52.691406 40.746094 53.46875 C 40.746094 58.117188 40.726562 62.761719 40.726562 67.410156 C 40.765625 67.761719 40.433594 67.957031 40.242188 68.167969 C 38.996094 69.316406 37.769531 70.464844 36.585938 71.648438 C 36.273438 72 35.828125 72.234375 35.613281 72.640625 C 35.613281 75.5 35.59375 78.339844 35.632812 81.199219 C 34.386719 82.285156 33.222656 83.472656 32.035156 84.640625 C 29.816406 84.582031 27.601562 84.699219 25.382812 84.679688 C 24.78125 84.71875 24.160156 84.640625 23.558594 84.773438 C 23.226562 84.988281 22.914062 85.261719 22.738281 85.632812 C 23.402344 85.632812 23.886719 85.046875 24.546875 85.085938 C 27.117188 85.046875 29.703125 85.105469 32.269531 85.027344 C 33.394531 83.957031 34.425781 82.792969 35.632812 81.820312 C 35.632812 82.304688 35.691406 82.8125 35.59375 83.296875 C 33.824219 84.949219 32.113281 86.660156 30.304688 88.277344 C 28.59375 88.351562 26.863281 88.292969 25.152344 88.3125 C 24.957031 87.285156 23.558594 86.894531 22.835938 87.632812 C 22.097656 88.238281 22.527344 89.558594 23.441406 89.695312 C 24.160156 89.929688 24.878906 89.441406 25.113281 88.742188 C 26.804688 88.742188 28.515625 88.742188 30.207031 88.703125 C 30.207031 89.34375 30.207031 89.988281 30.226562 90.628906 C 27.621094 90.648438 25.035156 90.6875 22.429688 90.6875 C 21.828125 90.726562 21.300781 90.257812 20.699219 90.394531 C 19.804688 90.453125 19.238281 91.601562 19.785156 92.339844 C 20.25 93.15625 21.59375 93.15625 22.039062 92.359375 Z M 16.730469 87.652344 C 17.394531 87.691406 18.074219 87.691406 18.734375 87.710938 C 18.949219 87.691406 19.21875 87.789062 19.375 87.59375 C 20.699219 86.273438 22.019531 84.949219 23.363281 83.648438 C 26.085938 83.550781 28.828125 83.609375 31.566406 83.570312 C 32.539062 82.617188 33.492188 81.644531 34.5625 80.789062 C 34.542969 80.167969 34.542969 79.523438 34.523438 78.902344 C 34.425781 78.921875 34.25 78.980469 34.171875 79 C 34.136719 79.523438 34.171875 80.050781 34.15625 80.574219 C 33.164062 81.371094 32.347656 82.363281 31.355469 83.140625 C 28.671875 83.199219 25.988281 83.199219 23.304688 83.179688 C 23.089844 83.238281 22.992188 83.453125 22.835938 83.570312 C 21.59375 84.832031 20.289062 86.019531 19.085938 87.324219 C 18.289062 87.324219 17.488281 87.285156 16.710938 87.265625 C 16.574219 86.933594 16.5 86.488281 16.109375 86.371094 C 15.351562 86.019531 14.398438 86.429688 14.105469 87.207031 C 13.835938 88.140625 14.882812 89.132812 15.816406 88.761719 C 16.304688 88.605469 16.539062 88.082031 16.730469 87.652344 Z M 19.453125 85.378906 C 20.210938 84.699219 20.894531 83.898438 21.671875 83.21875 C 22.117188 82.851562 22.449219 82.324219 22.972656 82.054688 C 25.597656 82.035156 28.222656 82.054688 30.847656 82.015625 C 31.625 81.21875 32.441406 80.457031 33.296875 79.738281 C 33.296875 79.332031 33.296875 78.921875 33.316406 78.515625 C 33.746094 78.183594 34.15625 77.871094 34.621094 77.601562 C 34.640625 76.042969 34.621094 74.507812 34.621094 72.953125 C 34.640625 72.582031 34.503906 72.117188 34.855469 71.84375 C 36.46875 70.289062 38.0625 68.714844 39.753906 67.234375 C 39.8125 63.015625 39.714844 58.777344 39.792969 54.558594 C 39.871094 54.03125 39.328125 53.78125 39.054688 53.429688 C 38.644531 53.097656 38.355469 52.476562 37.75 52.535156 C 34.738281 52.554688 31.703125 52.535156 28.691406 52.574219 C 27.777344 51.582031 26.707031 50.746094 25.832031 49.714844 C 21.027344 49.675781 16.246094 49.695312 11.441406 49.675781 C 11.054688 49.289062 10.703125 48.859375 10.238281 48.589844 C 9.265625 48.628906 8.273438 48.628906 7.300781 48.628906 C 7.105469 47.945312 6.484375 47.363281 5.726562 47.539062 C 4.695312 47.617188 4.265625 49.074219 5.046875 49.714844 C 5.726562 50.398438 7.164062 50.085938 7.242188 49.054688 C 8.234375 49.035156 9.246094 48.976562 10.238281 49.054688 C 10.585938 49.347656 10.878906 49.714844 11.210938 50.027344 C 10.585938 50.628906 10.003906 51.292969 9.382812 51.894531 C 9.109375 52.128906 8.914062 52.417969 8.738281 52.730469 C 7.75 52.730469 6.757812 52.710938 5.765625 52.730469 C 5.648438 52.4375 5.609375 52.109375 5.394531 51.855469 C 4.871094 51.3125 3.878906 51.3125 3.371094 51.875 C 2.789062 52.574219 3.179688 53.78125 4.035156 54.03125 C 4.714844 54.226562 5.453125 53.800781 5.667969 53.15625 C 6.777344 53.136719 7.863281 53.175781 8.972656 53.136719 C 9.304688 52.925781 9.421875 52.496094 9.710938 52.242188 C 10.394531 51.601562 10.976562 50.882812 11.636719 50.203125 C 11.949219 50.105469 12.257812 50.144531 12.570312 50.125 C 16.90625 50.125 21.242188 50.164062 25.558594 50.125 C 26.53125 51.097656 27.5625 52.011719 28.476562 53.023438 C 31.625 52.964844 34.777344 53.023438 37.90625 52.964844 C 38.375 53.429688 38.839844 53.898438 39.328125 54.324219 C 39.347656 57.066406 39.328125 59.808594 39.347656 62.550781 C 39.328125 63.949219 39.425781 65.371094 39.347656 66.769531 C 39.347656 67.101562 38.996094 67.273438 38.800781 67.488281 C 37.363281 68.753906 36.019531 70.132812 34.601562 71.417969 C 34.445312 71.589844 34.210938 71.726562 34.230469 72 C 34.210938 73.730469 34.25 75.441406 34.210938 77.171875 C 33.84375 77.542969 33.355469 77.753906 32.949219 78.066406 C 32.929688 78.535156 32.929688 78.980469 32.929688 79.449219 C 32.132812 80.128906 31.375 80.886719 30.578125 81.585938 C 27.933594 81.625 25.308594 81.644531 22.664062 81.605469 C 21.554688 82.734375 20.40625 83.785156 19.296875 84.910156 C 18.210938 85.046875 17.101562 84.910156 16.011719 85.066406 C 15.816406 85.105469 15.71875 85.242188 15.738281 85.457031 C 16.984375 85.359375 18.230469 85.476562 19.453125 85.378906 Z M 14.613281 84.308594 C 14.769531 84.113281 14.824219 83.746094 15.136719 83.785156 C 16.421875 83.746094 17.703125 83.785156 18.988281 83.785156 C 19.960938 82.8125 20.96875 81.878906 21.941406 80.886719 C 22.136719 80.710938 22.332031 80.457031 22.625 80.476562 C 24.839844 80.457031 27.058594 80.457031 29.292969 80.457031 C 29.664062 80.515625 29.894531 80.1875 30.128906 79.953125 C 30.847656 79.15625 31.644531 78.4375 32.441406 77.71875 C 32.734375 77.445312 33.085938 77.132812 33.066406 76.6875 C 33.144531 74.9375 33.007812 73.167969 33.144531 71.417969 C 33.570312 70.890625 34.117188 70.445312 34.601562 69.957031 C 35.828125 68.8125 37.011719 67.605469 38.335938 66.535156 C 38.335938 62.726562 38.316406 58.894531 38.355469 55.082031 C 38.414062 54.617188 37.984375 54.246094 37.597656 54.070312 C 34.503906 54.089844 31.433594 54.070312 28.339844 54.109375 C 28.144531 54.128906 27.992188 54.050781 27.875 53.917969 C 27.039062 53.078125 26.203125 52.242188 25.347656 51.40625 C 25.230469 51.273438 25.09375 51.214844 24.917969 51.234375 C 20.914062 51.292969 16.90625 51.253906 12.921875 51.273438 C 11.890625 52.203125 11.035156 53.332031 9.925781 54.1875 C 8.660156 54.246094 7.398438 54.1875 6.132812 54.226562 C 6.054688 54.792969 5.921875 55.335938 5.941406 55.917969 C 7.59375 56.015625 9.265625 56.035156 10.917969 56.015625 C 11.988281 55.199219 12.785156 54.011719 13.875 53.234375 C 17.121094 53.195312 20.367188 53.175781 23.632812 53.175781 C 23.886719 53.195312 24.21875 53.097656 24.433594 53.292969 C 25.402344 54.167969 26.257812 55.160156 27.25 56.035156 C 28.242188 56.152344 29.234375 56.074219 30.226562 56.09375 C 30.226562 58.136719 30.246094 60.175781 30.226562 62.21875 C 27.289062 62.21875 24.355469 62.238281 21.417969 62.160156 C 20.738281 61.65625 20.191406 60.992188 19.511719 60.488281 C 18.402344 60.46875 17.296875 60.488281 16.1875 60.449219 C 16.050781 60.0625 15.914062 59.632812 15.507812 59.4375 C 14.789062 58.992188 13.71875 59.4375 13.542969 60.273438 C 13.347656 61.167969 14.28125 62.023438 15.15625 61.832031 C 15.664062 61.773438 15.953125 61.285156 16.1875 60.898438 C 17.257812 60.917969 18.324219 60.917969 19.375 60.9375 C 20.058594 61.441406 20.582031 62.121094 21.261719 62.628906 C 24.199219 62.707031 27.152344 62.570312 30.089844 62.667969 L 30.1875 62.761719 C 30.207031 63.542969 30.226562 64.320312 30.1875 65.078125 C 29.835938 65.582031 29.371094 65.972656 28.941406 66.4375 C 28.710938 66.632812 28.515625 66.964844 28.144531 66.925781 C 26.203125 66.925781 24.257812 66.945312 22.292969 66.90625 C 21.261719 67.957031 20.152344 68.925781 19.125 69.957031 C 18.558594 70.484375 18.054688 71.066406 17.414062 71.496094 C 16.265625 70.582031 15.253906 69.53125 14.125 68.578125 C 13.949219 68.226562 14.125 67.722656 13.816406 67.410156 C 13.230469 66.710938 12.105469 66.808594 11.558594 67.507812 C 10.546875 67.429688 9.519531 67.507812 8.507812 67.449219 C 8.679688 66.574219 7.902344 65.699219 7.007812 65.894531 C 6.09375 65.933594 5.609375 67.101562 6.132812 67.820312 C 6.640625 68.636719 7.980469 68.65625 8.429688 67.78125 C 9.421875 67.898438 10.429688 67.839844 11.441406 67.878906 C 11.402344 68.539062 11.714844 69.335938 12.453125 69.433594 C 13 69.609375 13.542969 69.355469 13.894531 68.945312 C 14.921875 69.765625 15.796875 70.753906 16.808594 71.589844 C 17.101562 71.863281 17.605469 71.960938 17.9375 71.6875 C 19.472656 70.269531 20.914062 68.773438 22.46875 67.371094 C 24.488281 67.292969 26.511719 67.390625 28.535156 67.3125 C 29.078125 66.945312 29.46875 66.417969 29.953125 65.992188 C 30.226562 65.699219 30.652344 65.445312 30.597656 64.980469 C 30.578125 61.871094 30.597656 58.757812 30.578125 55.648438 C 29.605469 55.648438 28.632812 55.648438 27.660156 55.648438 C 27.40625 55.6875 27.25 55.453125 27.078125 55.296875 C 26.375 54.578125 25.617188 53.953125 24.9375 53.214844 C 24.742188 53.023438 24.546875 52.730469 24.21875 52.769531 C 22.058594 52.769531 19.882812 52.769531 17.703125 52.769531 C 16.402344 52.75 15.097656 52.867188 13.796875 52.769531 C 13.523438 52.730469 13.347656 52.984375 13.171875 53.136719 C 12.355469 53.972656 11.539062 54.792969 10.703125 55.609375 C 9.265625 55.609375 7.804688 55.628906 6.367188 55.550781 C 6.367188 55.257812 6.367188 54.945312 6.367188 54.65625 C 7.613281 54.65625 8.835938 54.65625 10.082031 54.675781 C 10.898438 53.839844 11.753906 53.042969 12.53125 52.167969 C 12.746094 51.953125 12.980469 51.640625 13.308594 51.699219 C 16.769531 51.679688 20.230469 51.71875 23.710938 51.679688 C 24.121094 51.699219 24.527344 51.640625 24.9375 51.738281 C 25.695312 52.398438 26.394531 53.097656 27.097656 53.800781 C 27.40625 54.070312 27.621094 54.597656 28.105469 54.519531 C 31.140625 54.539062 34.171875 54.480469 37.207031 54.519531 C 37.539062 54.480469 37.90625 54.714844 37.828125 55.0625 C 37.828125 58.679688 37.828125 62.316406 37.828125 65.933594 C 37.886719 66.207031 37.65625 66.378906 37.5 66.554688 C 36.058594 67.878906 34.621094 69.199219 33.261719 70.601562 C 33.027344 70.871094 32.597656 71.066406 32.617188 71.476562 C 32.597656 73.148438 32.597656 74.839844 32.597656 76.511719 C 32.636719 76.859375 32.347656 77.074219 32.132812 77.289062 C 31.21875 78.164062 30.324219 79.058594 29.449219 79.972656 C 27.058594 80.089844 24.664062 79.992188 22.273438 80.03125 C 21.691406 80.359375 21.28125 80.945312 20.777344 81.371094 C 20.078125 81.976562 19.511719 82.714844 18.8125 83.316406 C 17.46875 83.394531 16.128906 83.355469 14.804688 83.394531 C 14.535156 82.578125 13.484375 82.167969 12.746094 82.617188 C 12.085938 82.988281 12.027344 83.957031 12.492188 84.503906 C 13.054688 85.164062 14.222656 85.027344 14.613281 84.308594 Z M 45.644531 81.839844 C 46.40625 81.101562 45.820312 79.71875 44.769531 79.679688 C 44.730469 77.660156 44.75 75.617188 44.730469 73.59375 C 44.75 73.378906 44.695312 73.109375 44.847656 72.933594 C 45.550781 72.15625 46.367188 71.515625 47.007812 70.695312 C 47.144531 70.542969 47.203125 70.386719 47.164062 70.171875 C 46.96875 70.269531 46.773438 70.347656 46.636719 70.503906 C 45.996094 71.144531 45.355469 71.804688 44.695312 72.445312 C 44.519531 72.640625 44.265625 72.816406 44.304688 73.089844 C 44.304688 75.285156 44.324219 77.464844 44.324219 79.660156 C 43.78125 79.835938 43.234375 80.265625 43.3125 80.90625 C 43.3125 82.035156 44.945312 82.792969 45.644531 81.839844 Z M 21.613281 79.078125 C 21.789062 78.902344 22.078125 78.960938 22.292969 78.941406 C 24.453125 78.921875 26.609375 78.921875 28.769531 78.882812 C 28.980469 78.902344 29.117188 78.726562 29.253906 78.609375 C 29.933594 77.929688 30.636719 77.289062 31.355469 76.648438 C 31.546875 76.511719 31.585938 76.277344 31.585938 76.0625 C 31.664062 74.3125 31.453125 72.523438 31.664062 70.792969 C 32.636719 69.878906 33.628906 68.964844 34.503906 67.957031 C 34.40625 67.917969 34.25 67.820312 34.15625 67.761719 C 33.164062 68.773438 32.074219 69.6875 31.160156 70.753906 C 31.082031 72.5625 31.238281 74.390625 31.121094 76.179688 C 30.34375 76.957031 29.566406 77.699219 28.75 78.4375 C 26.335938 78.628906 23.886719 78.417969 21.457031 78.609375 C 20.777344 79.234375 20.152344 79.894531 19.472656 80.515625 C 19.296875 80.652344 19.144531 80.867188 18.910156 80.828125 C 18.324219 80.808594 17.722656 80.925781 17.160156 80.75 C 16.285156 79.855469 15.390625 79.019531 14.417969 78.242188 C 14.183594 77.910156 14.007812 77.542969 13.71875 77.25 C 18.578125 77.25 23.441406 77.25 28.28125 77.230469 C 28.886719 76.765625 29.410156 76.199219 29.992188 75.714844 C 29.972656 74.082031 30.011719 72.464844 29.972656 70.832031 C 29.992188 70.621094 29.894531 70.347656 30.089844 70.191406 C 31.355469 69.042969 32.519531 67.820312 33.726562 66.59375 C 34.230469 66.984375 34.914062 67.390625 35.554688 67.042969 C 36.546875 66.632812 36.371094 64.863281 35.28125 64.726562 C 34.503906 64.6875 33.726562 64.804688 32.949219 64.765625 C 31.664062 66.1875 30.167969 67.390625 28.847656 68.792969 C 28.574219 69.160156 27.953125 69.355469 27.992188 69.878906 C 27.953125 71.648438 27.992188 73.4375 27.972656 75.207031 C 22.234375 75.226562 16.5 75.304688 10.761719 75.304688 C 10.507812 75.285156 10.238281 75.363281 10.003906 75.226562 C 9.808594 74.976562 9.671875 74.683594 9.402344 74.507812 C 8.679688 74.023438 7.476562 74.507812 7.4375 75.421875 C 7.320312 76.179688 8.039062 76.917969 8.796875 76.839844 C 9.441406 76.859375 9.90625 76.316406 10.003906 75.734375 C 15.664062 75.675781 21.339844 75.675781 27.019531 75.65625 C 27.484375 75.617188 28.085938 75.792969 28.378906 75.324219 C 28.476562 73.476562 28.320312 71.589844 28.457031 69.746094 C 29.992188 68.246094 31.546875 66.75 33.105469 65.253906 C 33.414062 65.097656 33.785156 65.214844 34.097656 65.234375 C 33.882812 65.660156 33.648438 66.089844 33.296875 66.417969 C 32.210938 67.488281 31.160156 68.617188 30.03125 69.648438 C 29.875 69.820312 29.625 69.957031 29.546875 70.210938 C 29.507812 71.960938 29.625 73.730469 29.507812 75.480469 C 29.078125 75.964844 28.59375 76.414062 28.085938 76.804688 C 23.613281 76.839844 19.144531 76.804688 14.652344 76.839844 C 14.242188 76.824219 13.875 76.957031 13.503906 77.09375 C 13.074219 77.113281 12.589844 77.054688 12.21875 77.367188 C 11.480469 77.929688 11.695312 79.292969 12.589844 79.601562 C 13.308594 79.894531 14.027344 79.390625 14.398438 78.785156 C 15.3125 79.542969 16.128906 80.398438 16.984375 81.21875 C 17.761719 81.3125 18.558594 81.273438 19.335938 81.238281 C 20.132812 80.554688 20.835938 79.777344 21.613281 79.078125 Z M 21.164062 72.234375 C 21.613281 72.214844 22.117188 72.117188 22.507812 72.410156 C 22.894531 72.679688 23.421875 72.757812 23.847656 72.542969 C 24.605469 72.234375 24.800781 71.125 24.238281 70.542969 C 23.632812 69.957031 22.527344 70.09375 22.097656 70.792969 C 22 71.125 22.058594 71.457031 22.039062 71.785156 C 21.59375 71.804688 21.144531 71.765625 20.71875 71.824219 C 20.308594 72.136719 20.019531 72.5625 19.628906 72.855469 C 17.839844 72.914062 16.050781 72.875 14.261719 72.855469 C 13.503906 72.136719 12.6875 71.457031 12.046875 70.621094 C 11.269531 70.582031 10.488281 70.582031 9.710938 70.601562 C 9.535156 69.707031 8.488281 69.199219 7.691406 69.6875 C 6.738281 70.152344 6.96875 71.785156 8.019531 71.980469 C 8.738281 72.195312 9.460938 71.707031 9.710938 71.046875 C 10.410156 71.066406 11.132812 70.988281 11.8125 71.105469 C 12.570312 71.824219 13.289062 72.582031 14.046875 73.285156 C 15.875 73.398438 17.722656 73.320312 19.550781 73.320312 C 20.289062 73.339844 20.425781 72.253906 21.164062 72.234375 Z M 21.671875 65.992188 C 21.828125 65.816406 22.078125 65.875 22.292969 65.875 C 24.316406 65.894531 26.316406 65.894531 28.339844 65.894531 C 28.339844 65.195312 28.339844 64.511719 28.339844 63.8125 C 26.164062 63.792969 23.964844 63.792969 21.789062 63.8125 C 21.789062 63.910156 21.789062 64.125 21.789062 64.242188 C 23.828125 64.261719 25.871094 64.203125 27.914062 64.300781 C 27.894531 64.6875 27.894531 65.078125 27.894531 65.464844 C 25.8125 65.464844 23.730469 65.464844 21.652344 65.445312 C 20.835938 66.089844 20.132812 66.867188 19.355469 67.546875 C 18.617188 66.90625 17.859375 66.265625 17.140625 65.601562 C 17.003906 65.273438 17.238281 64.882812 17.101562 64.550781 C 16.847656 63.910156 16.050781 63.542969 15.410156 63.792969 C 15.097656 63.890625 14.863281 64.164062 14.632812 64.378906 C 14.046875 64.105469 13.601562 63.65625 13.171875 63.191406 C 10.761719 63.230469 8.332031 63.25 5.921875 63.210938 C 5.785156 62.917969 5.6875 62.570312 5.414062 62.355469 C 4.65625 61.695312 3.179688 62.316406 3.277344 63.367188 C 3.257812 64.183594 4.113281 64.785156 4.890625 64.570312 C 5.375 64.476562 5.648438 64.027344 5.882812 63.636719 C 8.214844 63.621094 10.527344 63.621094 12.863281 63.636719 C 13.425781 63.929688 13.796875 64.550781 14.4375 64.765625 C 14.554688 65.3125 14.75 65.933594 15.351562 66.109375 C 15.855469 66.359375 16.402344 66.1875 16.828125 65.855469 C 17.683594 66.574219 18.460938 67.410156 19.394531 68.015625 C 20.230469 67.410156 20.894531 66.632812 21.671875 65.992188 Z M 35.203125 62.609375 C 35.652344 62.003906 35.535156 60.9375 34.777344 60.644531 C 34.621094 60.546875 34.347656 60.488281 34.386719 60.253906 C 34.347656 59.1875 34.386719 58.097656 34.367188 57.027344 C 33.589844 57.066406 32.8125 57.085938 32.035156 57.066406 C 32.035156 57.164062 32.035156 57.359375 32.035156 57.472656 C 32.675781 57.472656 33.316406 57.472656 33.960938 57.457031 C 33.960938 58.464844 33.980469 59.496094 33.941406 60.507812 C 33.570312 60.664062 33.105469 60.78125 32.929688 61.1875 C 32.695312 61.695312 32.734375 62.375 33.183594 62.761719 C 33.746094 63.25 34.699219 63.152344 35.203125 62.609375 Z M 27.933594 60.546875 C 28.902344 60.175781 28.921875 58.5625 27.972656 58.15625 C 27.039062 57.941406 26.066406 58.3125 25.113281 58.136719 C 23.847656 56.890625 22.605469 55.609375 21.320312 54.363281 C 18.929688 54.363281 16.558594 54.382812 14.164062 54.382812 C 13.347656 55.316406 12.433594 56.171875 11.539062 57.027344 C 9.730469 57.164062 7.902344 57.007812 6.113281 57.183594 C 6.132812 57.261719 6.152344 57.417969 6.171875 57.492188 C 8.058594 57.628906 9.945312 57.472656 11.832031 57.492188 C 12.628906 56.542969 13.523438 55.707031 14.4375 54.867188 C 16.34375 54.773438 18.269531 54.867188 20.171875 54.8125 C 20.5625 54.832031 21.046875 54.695312 21.339844 55.042969 C 22.410156 56.09375 23.5 57.125 24.507812 58.234375 C 24.878906 58.796875 25.636719 58.5625 26.203125 58.621094 C 26.824219 58.660156 27.660156 58.234375 28.085938 58.914062 C 28.574219 59.574219 27.738281 60.46875 27.039062 60.175781 C 26.648438 60.082031 26.648438 59.652344 26.609375 59.339844 C 25.832031 59.300781 25.054688 59.300781 24.257812 59.359375 C 23.128906 58.195312 21.902344 57.125 20.777344 55.957031 C 18.871094 55.996094 16.945312 55.9375 15.039062 55.996094 C 14.085938 56.773438 13.308594 57.765625 12.355469 58.5625 C 10.101562 58.582031 7.824219 58.601562 5.570312 58.601562 C 5.375 57.628906 4.015625 57.28125 3.316406 57.960938 C 2.632812 58.542969 2.925781 59.789062 3.761719 60.042969 C 4.539062 60.351562 5.433594 59.847656 5.609375 59.03125 C 7.960938 59.03125 10.296875 59.011719 12.648438 59.011719 C 13.445312 58.117188 14.320312 57.28125 15.175781 56.464844 C 16.945312 56.347656 18.714844 56.445312 20.484375 56.40625 C 21.789062 57.359375 22.816406 58.660156 24.023438 59.75 C 24.683594 59.828125 25.367188 59.769531 26.046875 59.808594 C 26.335938 60.488281 27.191406 60.878906 27.933594 60.546875 Z M 17.546875 49.328125 C 17.585938 48.839844 17.585938 48.335938 17.605469 47.828125 C 17.0625 47.789062 16.480469 47.945312 15.953125 47.773438 C 14.960938 47.03125 14.183594 46.023438 13.210938 45.261719 C 10.703125 45.203125 8.175781 45.28125 5.667969 45.222656 C 5.433594 44.933594 5.335938 44.464844 4.929688 44.328125 C 4.132812 43.902344 2.925781 44.503906 3.003906 45.476562 C 2.964844 46.351562 3.917969 46.972656 4.734375 46.703125 C 5.238281 46.605469 5.414062 46.058594 5.609375 45.652344 C 8.078125 45.691406 10.566406 45.671875 13.039062 45.671875 C 13.96875 46.390625 14.710938 47.363281 15.644531 48.121094 C 16.050781 48.53125 16.652344 48.199219 17.140625 48.21875 C 17.160156 48.589844 17.160156 48.976562 17.179688 49.347656 C 17.257812 49.347656 17.449219 49.328125 17.546875 49.328125 Z M 24.140625 47.246094 L 24.238281 47.109375 C 22.933594 45.710938 21.515625 44.425781 20.132812 43.105469 C 19.707031 42.714844 19.316406 42.289062 18.832031 41.957031 C 16.304688 41.976562 13.777344 41.976562 11.25 42.035156 C 10.316406 42.171875 9.886719 41.101562 9.109375 40.769531 C 8.371094 40.789062 7.613281 40.828125 6.875 40.808594 C 6.738281 40.421875 6.601562 39.972656 6.191406 39.78125 C 5.375 39.273438 4.171875 39.972656 4.210938 40.925781 C 4.191406 41.703125 4.988281 42.269531 5.726562 42.132812 C 6.289062 42.132812 6.640625 41.664062 6.855469 41.21875 C 7.574219 41.238281 8.273438 41.199219 8.992188 41.199219 C 9.554688 41.511719 9.964844 42.054688 10.46875 42.484375 C 12.960938 42.386719 15.449219 42.425781 17.9375 42.347656 C 18.269531 42.347656 18.675781 42.25 18.910156 42.539062 C 20.601562 44.058594 22.214844 45.652344 23.847656 47.226562 C 23.90625 47.246094 24.0625 47.246094 24.140625 47.246094 Z M 43.585938 41.878906 C 43.566406 40.925781 43.566406 39.972656 43.566406 39.019531 C 41.777344 37.40625 40.046875 35.714844 38.238281 34.101562 C 38.042969 33.964844 37.867188 33.695312 37.597656 33.75 C 36.507812 33.847656 35.398438 33.789062 34.289062 33.808594 C 34.289062 32.039062 34.25 30.289062 34.269531 28.519531 C 35.960938 28.519531 37.65625 28.480469 39.347656 28.5 C 39.386719 27.335938 39.289062 26.1875 39.367188 25.019531 C 39.792969 24.4375 40.53125 24.125 40.902344 23.523438 C 40.921875 21.25 40.882812 18.972656 40.902344 16.699219 C 40.882812 16.210938 40.941406 15.746094 40.84375 15.257812 C 40.414062 14.792969 39.851562 14.460938 39.347656 14.074219 C 39.347656 13.46875 39.347656 12.847656 39.40625 12.246094 C 40.085938 12.148438 40.707031 11.566406 40.628906 10.84375 C 40.570312 9.757812 39.015625 9.308594 38.335938 10.105469 C 37.730469 10.769531 38.042969 11.992188 38.957031 12.207031 C 38.976562 12.925781 38.957031 13.625 38.976562 14.34375 C 39.480469 14.714844 40.027344 15.046875 40.453125 15.492188 C 40.570312 16 40.492188 16.523438 40.511719 17.046875 C 40.492188 19.148438 40.53125 21.25 40.492188 23.347656 C 40.125 23.972656 39.308594 24.242188 38.957031 24.902344 C 38.878906 25.953125 38.957031 27.023438 38.9375 28.09375 C 37.246094 28.035156 35.535156 28.152344 33.84375 28.152344 C 33.863281 30.175781 33.980469 32.195312 33.902344 34.21875 C 35.085938 34.21875 36.273438 34.277344 37.460938 34.238281 C 37.789062 34.179688 37.984375 34.492188 38.21875 34.664062 C 39.910156 36.125 41.464844 37.757812 43.175781 39.195312 C 43.195312 39.953125 43.195312 40.714844 43.195312 41.492188 C 39.445312 41.472656 35.691406 41.472656 31.9375 41.511719 C 31.703125 41.550781 31.527344 41.355469 31.375 41.199219 C 29.703125 39.566406 28.007812 37.953125 26.335938 36.320312 C 25.558594 35.578125 24.742188 34.878906 24.042969 34.0625 C 23.984375 33.34375 24.0625 32.625 24.023438 31.90625 C 24.433594 31.632812 24.898438 31.28125 24.859375 30.71875 C 24.976562 29.746094 23.75 29.046875 22.953125 29.511719 C 22.351562 29.785156 22.175781 30.582031 22.371094 31.164062 C 22.605469 31.652344 23.148438 31.808594 23.613281 31.90625 C 23.613281 32.703125 23.613281 33.480469 23.632812 34.277344 C 24.394531 34.996094 25.132812 35.734375 25.871094 36.472656 C 27.796875 38.242188 29.605469 40.128906 31.511719 41.898438 C 35.496094 41.898438 39.539062 41.859375 43.585938 41.878906 Z M 13.71875 40.578125 C 13.71875 40.460938 13.71875 40.246094 13.71875 40.148438 C 13.039062 40.050781 12.316406 40.1875 11.636719 40.050781 C 10.898438 39.332031 10.179688 38.613281 9.460938 37.855469 C 9.710938 37.542969 9.984375 37.175781 9.867188 36.746094 C 9.828125 36.105469 9.226562 35.65625 8.625 35.65625 C 7.882812 35.558594 7.164062 36.28125 7.359375 37.039062 C 7.4375 37.855469 8.351562 38.359375 9.089844 38.03125 C 9.847656 38.90625 10.644531 39.722656 11.480469 40.519531 C 12.238281 40.597656 12.980469 40.539062 13.71875 40.578125 Z M 38.664062 40.070312 C 39.519531 39.839844 39.949219 38.691406 39.367188 38.011719 C 38.703125 37.175781 37.148438 37.582031 37.050781 38.671875 C 36.835938 39.566406 37.808594 40.402344 38.664062 40.070312 Z M 35.574219 37.757812 C 36.507812 37.523438 36.835938 36.085938 35.980469 35.539062 C 35.203125 34.898438 33.746094 35.464844 33.785156 36.53125 C 33.707031 37.445312 34.757812 38.070312 35.574219 37.757812 Z M 31.335938 36.960938 C 32.113281 36.648438 32.289062 35.519531 31.722656 34.9375 C 31.527344 34.742188 31.179688 34.683594 31.042969 34.433594 C 31.003906 33.539062 31.0625 32.664062 31.042969 31.769531 C 31.453125 31.789062 31.898438 31.828125 32.269531 31.59375 C 33.125 31.144531 33.007812 29.6875 32.09375 29.375 C 31.277344 28.96875 30.167969 29.609375 30.207031 30.5625 C 30.148438 31.011719 30.519531 31.320312 30.617188 31.710938 C 30.617188 32.683594 30.597656 33.636719 30.578125 34.605469 C 30.246094 34.742188 29.933594 34.9375 29.625 35.152344 C 28.902344 34.453125 28.164062 33.75 27.40625 33.089844 C 27.289062 31.085938 27.347656 29.066406 27.347656 27.0625 C 30.886719 27.101562 34.40625 27.003906 37.945312 27.042969 C 37.945312 26.128906 37.925781 25.214844 37.964844 24.320312 C 38.316406 23.542969 39.578125 23.289062 39.445312 22.316406 C 39.40625 20.355469 39.5 18.371094 39.40625 16.40625 C 37.867188 15.085938 36.410156 13.664062 34.992188 12.226562 C 35.730469 11.699219 35.691406 10.457031 34.855469 10.066406 C 34.097656 9.621094 32.96875 10.164062 32.96875 11.078125 C 32.910156 11.71875 33.394531 12.226562 33.960938 12.421875 C 33.980469 13.101562 34.019531 13.800781 34 14.480469 C 35.105469 15.433594 36.136719 16.464844 37.226562 17.4375 C 37.226562 18.332031 37.246094 19.226562 37.207031 20.140625 C 36.722656 20.644531 36.058594 20.957031 35.652344 21.519531 C 35.613281 22.707031 35.652344 23.894531 35.652344 25.078125 C 31.355469 25.15625 27.078125 25.117188 22.777344 25.136719 C 21.652344 24.125 20.542969 23.078125 19.472656 22.027344 C 19.296875 21.871094 19.125 21.65625 18.851562 21.675781 C 17.839844 21.617188 16.847656 21.636719 15.835938 21.597656 C 15.757812 21.289062 15.71875 20.917969 15.449219 20.664062 C 14.84375 20.023438 13.523438 20.21875 13.269531 21.113281 C 12.960938 21.949219 13.71875 22.84375 14.554688 22.863281 C 14.960938 23.5625 15.585938 24.085938 16.148438 24.671875 C 17.023438 25.488281 17.859375 26.34375 18.714844 27.179688 C 19.238281 27.238281 19.785156 27.082031 20.308594 27.140625 C 22.507812 27.199219 24.703125 27.082031 26.902344 27.160156 C 26.882812 28.949219 26.902344 30.757812 26.902344 32.546875 C 26.921875 32.835938 26.84375 33.1875 27.097656 33.382812 C 27.835938 34.121094 28.632812 34.78125 29.351562 35.539062 C 29.46875 35.832031 29.46875 36.144531 29.585938 36.433594 C 29.953125 36.960938 30.730469 37.269531 31.335938 36.960938 Z M 46.578125 31.515625 C 46.65625 30.875 46.132812 30.425781 45.625 30.175781 C 45.625 25.175781 45.625 20.160156 45.664062 15.164062 C 45.570312 15.164062 45.355469 15.183594 45.257812 15.183594 C 45.257812 20.179688 45.238281 25.175781 45.199219 30.175781 C 44.925781 30.269531 44.617188 30.308594 44.402344 30.523438 C 43.761719 31.105469 43.894531 32.332031 44.734375 32.664062 C 45.53125 33.050781 46.636719 32.449219 46.578125 31.515625 Z M 37.011719 32.703125 C 37.847656 32.449219 38.21875 31.28125 37.65625 30.621094 C 36.914062 29.882812 35.398438 30.25 35.261719 31.359375 C 35.050781 32.292969 36.175781 33.011719 37.011719 32.703125 Z M 8.429688 32.742188 C 9.5 32.488281 9.554688 30.855469 8.605469 30.40625 C 7.84375 29.921875 6.777344 30.445312 6.679688 31.339844 C 6.464844 32.292969 7.554688 33.148438 8.429688 32.742188 Z M 20.191406 30.058594 C 18.230469 28.171875 16.285156 26.246094 14.28125 24.398438 C 13.074219 24.222656 11.832031 24.300781 10.625 24.339844 C 10.605469 24.4375 10.566406 24.652344 10.546875 24.75 C 11.636719 24.75 12.726562 24.710938 13.816406 24.75 C 14.027344 24.730469 14.183594 24.867188 14.339844 25 C 16.226562 26.769531 18.054688 28.558594 19.882812 30.367188 C 20 30.269531 20.09375 30.175781 20.191406 30.058594 Z M 34.699219 23.835938 C 34.660156 22.355469 34.777344 20.839844 34.621094 19.382812 C 33.335938 18.117188 31.917969 16.988281 30.691406 15.667969 C 30.578125 15.125 30.652344 14.558594 30.636719 14.015625 C 31.023438 13.820312 31.453125 13.585938 31.527344 13.121094 C 31.878906 12.167969 30.75 11.117188 29.816406 11.566406 C 29.058594 11.777344 28.769531 12.769531 29.175781 13.394531 C 29.410156 13.742188 29.816406 13.917969 30.207031 14.015625 C 30.265625 14.773438 29.953125 15.746094 30.652344 16.289062 C 31.839844 17.339844 32.988281 18.429688 34.136719 19.519531 C 34.289062 20.820312 34.191406 22.144531 34.25 23.445312 C 31.722656 23.464844 29.195312 23.445312 26.667969 23.523438 C 25.773438 22.628906 24.820312 21.792969 23.925781 20.898438 C 23.75 20.761719 23.597656 20.546875 23.363281 20.507812 C 22.585938 20.433594 21.789062 20.527344 20.988281 20.492188 C 20.347656 19.964844 19.824219 19.304688 19.183594 18.777344 C 19.414062 18.253906 19.492188 17.59375 19.046875 17.164062 C 18.382812 16.386719 16.886719 16.835938 16.808594 17.863281 C 16.632812 18.933594 18.074219 19.75 18.910156 19.050781 C 19.53125 19.632812 20.058594 20.316406 20.71875 20.859375 C 21.574219 21.074219 22.46875 20.859375 23.324219 21.015625 C 24.296875 21.8125 25.171875 22.746094 26.105469 23.582031 C 26.277344 23.71875 26.433594 23.933594 26.667969 23.933594 C 29.371094 23.914062 32.035156 23.933594 34.699219 23.835938 Z M 33.222656 22.335938 C 33.242188 21.558594 33.261719 20.78125 33.164062 20.003906 C 31.996094 18.933594 30.847656 17.863281 29.742188 16.738281 C 29.429688 16.503906 29.644531 16.058594 29.46875 15.726562 C 29.058594 14.96875 27.875 14.949219 27.367188 15.589844 C 26.804688 16.210938 27.019531 17.4375 27.914062 17.652344 C 28.515625 17.882812 29.117188 17.515625 29.46875 17.066406 C 30.539062 18.117188 31.605469 19.1875 32.734375 20.179688 C 32.851562 20.761719 32.792969 21.367188 32.8125 21.949219 C 31.605469 21.890625 30.421875 21.871094 29.214844 21.890625 C 27.855469 20.375 26.277344 19.050781 24.878906 17.59375 C 24.722656 17.242188 24.917969 16.816406 24.683594 16.484375 C 24.257812 15.765625 23.109375 15.648438 22.546875 16.289062 C 21.960938 16.894531 22.234375 18 23.011719 18.292969 C 23.578125 18.585938 24.21875 18.3125 24.585938 17.863281 C 25.910156 19.246094 27.328125 20.527344 28.632812 21.910156 C 28.828125 22.085938 29 22.355469 29.292969 22.316406 C 30.617188 22.335938 31.917969 22.296875 33.222656 22.335938 Z M 33.222656 22.335938 " fill-opacity="1" fill-rule="nonzero"/></g><path fill="#00089f" d="M 37.675781 105.699219 C 37.011719 105.949219 36.273438 105.171875 36.605469 104.53125 C 36.953125 103.949219 37.867188 103.988281 38.238281 104.550781 C 38.433594 104.980469 38.121094 105.5625 37.675781 105.699219 Z M 37.675781 105.699219 " fill-opacity="1" fill-rule="nonzero"/><path fill="#00089f" d="M 41.738281 104.105469 C 41.15625 104.394531 40.355469 103.851562 40.472656 103.210938 C 40.628906 102.566406 41.582031 102.335938 42.03125 102.839844 C 42.417969 103.210938 42.183594 103.871094 41.738281 104.105469 Z M 41.738281 104.105469 " fill-opacity="1" fill-rule="nonzero"/><path fill="#00089f" d="M 34.601562 103.832031 C 34.019531 104.160156 33.144531 103.558594 33.355469 102.898438 C 33.492188 102.277344 34.386719 102.101562 34.816406 102.527344 C 35.242188 102.898438 35.066406 103.597656 34.601562 103.832031 Z M 34.601562 103.832031 " fill-opacity="1" fill-rule="nonzero"/><path fill="#00089f" d="M 45.820312 102.800781 C 45.121094 103.015625 44.5 102.121094 44.867188 101.515625 C 45.199219 101.070312 45.957031 100.992188 46.308594 101.480469 C 46.695312 101.925781 46.347656 102.664062 45.820312 102.800781 Z M 45.820312 102.800781 " fill-opacity="1" fill-rule="nonzero"/><path fill="#00089f" d="M 28.066406 100.195312 C 27.542969 100.507812 26.84375 100.039062 26.863281 99.457031 C 26.804688 98.699219 27.894531 98.386719 28.359375 98.929688 C 28.769531 99.300781 28.535156 99.980469 28.066406 100.195312 Z M 28.066406 100.195312 " fill-opacity="1" fill-rule="nonzero"/><path fill="#00089f" d="M 33.941406 98.582031 C 33.335938 98.929688 32.539062 98.328125 32.65625 97.667969 C 32.851562 97.046875 33.765625 96.792969 34.191406 97.316406 C 34.582031 97.6875 34.425781 98.386719 33.941406 98.582031 Z M 33.941406 98.582031 " fill-opacity="1" fill-rule="nonzero"/><path fill="#00089f" d="M 24.023438 98.621094 C 23.480469 98.96875 22.566406 98.542969 22.683594 97.84375 C 22.703125 97.199219 23.519531 96.910156 24.003906 97.21875 C 24.605469 97.453125 24.546875 98.347656 24.023438 98.621094 Z M 24.023438 98.621094 " fill-opacity="1" fill-rule="nonzero"/><path fill="#00089f" d="M 38.800781 97.101562 C 38.277344 97.453125 37.597656 96.949219 37.636719 96.34375 C 37.65625 95.566406 38.917969 95.277344 39.269531 95.976562 C 39.480469 96.402344 39.230469 96.929688 38.800781 97.101562 Z M 38.800781 97.101562 " fill-opacity="1" fill-rule="nonzero"/><path fill="#00089f" d="M 21.28125 92.4375 C 20.699219 92.726562 19.941406 92.164062 20.078125 91.523438 C 20.230469 90.84375 21.222656 90.648438 21.652344 91.171875 C 21.921875 91.582031 21.75 92.222656 21.28125 92.4375 Z M 21.28125 92.4375 " fill-opacity="1" fill-rule="nonzero"/><path fill="#00089f" d="M 24.023438 89.304688 C 23.519531 89.421875 22.875 88.976562 22.972656 88.429688 C 23.03125 87.789062 23.945312 87.476562 24.394531 87.964844 C 24.898438 88.3125 24.566406 89.167969 24.023438 89.304688 Z M 24.023438 89.304688 " fill-opacity="1" fill-rule="nonzero"/><path fill="#00089f" d="M 15.757812 88.238281 C 15.292969 88.488281 14.671875 88.199219 14.535156 87.691406 C 14.378906 86.992188 15.332031 86.332031 15.894531 86.835938 C 16.421875 87.167969 16.265625 87.984375 15.757812 88.238281 Z M 15.757812 88.238281 " fill-opacity="1" fill-rule="nonzero"/><path fill="#00089f" d="M 13.777344 84.40625 C 13.113281 84.71875 12.414062 83.878906 12.804688 83.277344 C 13.113281 82.617188 14.203125 82.851562 14.300781 83.550781 C 14.398438 83.9375 14.125 84.289062 13.777344 84.40625 Z M 13.777344 84.40625 " fill-opacity="1" fill-rule="nonzero"/><path fill="#00089f" d="M 45.140625 81.683594 C 44.519531 82.128906 43.585938 81.371094 43.820312 80.671875 C 44.011719 80.148438 44.75 80.011719 45.179688 80.324219 C 45.625 80.613281 45.625 81.410156 45.140625 81.683594 Z M 45.140625 81.683594 " fill-opacity="1" fill-rule="nonzero"/><path fill="#00089f" d="M 13.464844 79.117188 C 12.941406 79.449219 12.179688 78.941406 12.238281 78.339844 C 12.21875 77.621094 13.269531 77.25 13.699219 77.8125 C 14.105469 78.183594 13.929688 78.882812 13.464844 79.117188 Z M 13.464844 79.117188 " fill-opacity="1" fill-rule="nonzero"/><path fill="#00089f" d="M 9.070312 76.316406 C 8.507812 76.609375 7.804688 76.023438 7.882812 75.421875 C 7.941406 74.839844 8.71875 74.46875 9.1875 74.839844 C 9.652344 75.207031 9.671875 76.0625 9.070312 76.316406 Z M 9.070312 76.316406 " fill-opacity="1" fill-rule="nonzero"/><path fill="#00089f" d="M 23.691406 72.078125 C 23.128906 72.445312 22.273438 71.863281 22.449219 71.203125 C 22.605469 70.503906 23.597656 70.503906 24.003906 70.949219 C 24.296875 71.320312 24.082031 71.863281 23.691406 72.078125 Z M 23.691406 72.078125 " fill-opacity="1" fill-rule="nonzero"/><path fill="#00089f" d="M 8.585938 71.570312 C 7.921875 71.746094 7.261719 70.910156 7.671875 70.328125 C 7.941406 69.859375 8.625 69.820312 8.972656 70.191406 C 9.460938 70.601562 9.148438 71.457031 8.585938 71.570312 Z M 8.585938 71.570312 " fill-opacity="1" fill-rule="nonzero"/><path fill="#00089f" d="M 12.980469 69.003906 C 12.335938 69.199219 11.617188 68.324219 12.085938 67.78125 C 12.453125 67.273438 13.328125 67.351562 13.5625 67.957031 C 13.777344 68.402344 13.40625 68.871094 12.980469 69.003906 Z M 12.980469 69.003906 " fill-opacity="1" fill-rule="nonzero"/><path fill="#00089f" d="M 7.613281 67.878906 C 7.046875 68.207031 6.25 67.605469 6.40625 66.964844 C 6.5625 66.398438 7.339844 66.109375 7.785156 66.496094 C 8.234375 66.867188 8.097656 67.644531 7.613281 67.878906 Z M 7.613281 67.878906 " fill-opacity="1" fill-rule="nonzero"/><path fill="#00089f" d="M 35.222656 66.691406 C 34.621094 66.964844 33.902344 66.28125 34.15625 65.679688 C 34.269531 65 35.28125 64.960938 35.632812 65.484375 C 35.925781 65.894531 35.710938 66.515625 35.222656 66.691406 Z M 35.222656 66.691406 " fill-opacity="1" fill-rule="nonzero"/><path fill="#00089f" d="M 16.070312 65.757812 C 15.351562 66.011719 14.632812 64.941406 15.234375 64.417969 C 15.625 63.929688 16.480469 64.105469 16.671875 64.6875 C 16.769531 65.117188 16.480469 65.601562 16.070312 65.757812 Z M 16.070312 65.757812 " fill-opacity="1" fill-rule="nonzero"/><path fill="#00089f" d="M 4.832031 64.105469 C 4.285156 64.300781 3.664062 63.773438 3.742188 63.210938 C 3.859375 62.550781 4.851562 62.316406 5.238281 62.859375 C 5.648438 63.269531 5.335938 63.949219 4.832031 64.105469 Z M 4.832031 64.105469 " fill-opacity="1" fill-rule="nonzero"/><path fill="#00089f" d="M 34.582031 62.472656 C 34.039062 62.859375 33.222656 62.394531 33.28125 61.734375 C 33.28125 60.976562 34.386719 60.644531 34.835938 61.246094 C 35.183594 61.636719 35.03125 62.257812 34.582031 62.472656 Z M 34.582031 62.472656 " fill-opacity="1" fill-rule="nonzero"/><path fill="#00089f" d="M 15.117188 61.402344 C 14.4375 61.675781 13.71875 60.800781 14.066406 60.175781 C 14.378906 59.691406 15.15625 59.613281 15.488281 60.082031 C 15.875 60.527344 15.585938 61.1875 15.117188 61.402344 Z M 15.117188 61.402344 " fill-opacity="1" fill-rule="nonzero"/><path fill="#00089f" d="M 4.519531 59.554688 C 3.917969 59.75 3.21875 59.128906 3.449219 58.523438 C 3.644531 57.902344 4.558594 57.804688 4.949219 58.3125 C 5.375 58.679688 5.027344 59.4375 4.519531 59.554688 Z M 4.519531 59.554688 " fill-opacity="1" fill-rule="nonzero"/><path fill="#00089f" d="M 4.65625 53.507812 C 4.015625 53.78125 3.296875 53.0625 3.546875 52.398438 C 3.859375 51.738281 4.949219 51.835938 5.179688 52.515625 C 5.355469 52.925781 5.066406 53.371094 4.65625 53.507812 Z M 4.65625 53.507812 " fill-opacity="1" fill-rule="nonzero"/><path fill="#00089f" d="M 6.152344 49.617188 C 5.53125 49.773438 4.929688 49.074219 5.160156 48.492188 C 5.375 47.964844 6.191406 47.789062 6.582031 48.21875 C 6.988281 48.648438 6.777344 49.523438 6.152344 49.617188 Z M 6.152344 49.617188 " fill-opacity="1" fill-rule="nonzero"/><path fill="#00089f" d="M 4.675781 46.234375 C 4.152344 46.527344 3.449219 46.058594 3.449219 45.476562 C 3.371094 44.757812 4.402344 44.347656 4.851562 44.875 C 5.316406 45.242188 5.160156 45.984375 4.675781 46.234375 Z M 4.675781 46.234375 " fill-opacity="1" fill-rule="nonzero"/><path fill="#00089f" d="M 5.84375 41.703125 C 5.375 41.859375 4.832031 41.570312 4.675781 41.101562 C 4.519531 40.421875 5.394531 39.800781 5.980469 40.207031 C 6.523438 40.519531 6.484375 41.511719 5.84375 41.703125 Z M 5.84375 41.703125 " fill-opacity="1" fill-rule="nonzero"/><path fill="#00089f" d="M 38.644531 39.566406 C 38.101562 39.875 37.34375 39.3125 37.5 38.710938 C 37.597656 38.164062 38.277344 37.835938 38.761719 38.125 C 39.347656 38.417969 39.230469 39.351562 38.644531 39.566406 Z M 38.644531 39.566406 " fill-opacity="1" fill-rule="nonzero"/><path fill="#00089f" d="M 13.289062 37.757812 C 12.589844 38.089844 11.929688 37.117188 12.375 36.53125 C 12.746094 35.96875 13.71875 36.242188 13.835938 36.902344 C 13.96875 37.308594 13.640625 37.640625 13.289062 37.757812 Z M 13.289062 37.757812 " fill-opacity="1" fill-rule="nonzero"/><path fill="#00089f" d="M 8.894531 37.582031 C 8.351562 37.835938 7.710938 37.308594 7.824219 36.726562 C 7.941406 36.027344 9.070312 35.851562 9.363281 36.492188 C 9.574219 36.902344 9.34375 37.464844 8.894531 37.582031 Z M 8.894531 37.582031 " fill-opacity="1" fill-rule="nonzero"/><path fill="#00089f" d="M 35.554688 37.25 C 35.03125 37.523438 34.171875 37.195312 34.230469 36.53125 C 34.269531 35.773438 35.359375 35.464844 35.828125 36.027344 C 36.234375 36.394531 36.019531 37.097656 35.554688 37.25 Z M 35.554688 37.25 " fill-opacity="1" fill-rule="nonzero"/><path fill="#00089f" d="M 31.179688 36.511719 C 30.636719 36.882812 29.796875 36.394531 29.914062 35.734375 C 30.03125 35.035156 31.042969 34.78125 31.472656 35.367188 C 31.800781 35.714844 31.605469 36.320312 31.179688 36.511719 Z M 31.179688 36.511719 " fill-opacity="1" fill-rule="nonzero"/><path fill="#00089f" d="M 45.625 32.234375 C 45.0625 32.488281 44.34375 31.960938 44.460938 31.359375 C 44.5 30.699219 45.433594 30.425781 45.859375 30.875 C 46.347656 31.222656 46.210938 32.058594 45.625 32.234375 Z M 45.625 32.234375 " fill-opacity="1" fill-rule="nonzero"/><path fill="#00089f" d="M 36.875 32.273438 C 36.371094 32.429688 35.671875 32.078125 35.730469 31.496094 C 35.730469 30.777344 36.703125 30.445312 37.207031 30.894531 C 37.675781 31.28125 37.460938 32.136719 36.875 32.273438 Z M 36.875 32.273438 " fill-opacity="1" fill-rule="nonzero"/><path fill="#00089f" d="M 8.410156 32.253906 C 7.785156 32.722656 6.855469 31.925781 7.222656 31.242188 C 7.457031 30.542969 8.527344 30.621094 8.777344 31.261719 C 8.972656 31.613281 8.738281 32.058594 8.410156 32.253906 Z M 8.410156 32.253906 " fill-opacity="1" fill-rule="nonzero"/><path fill="#00089f" d="M 31.839844 31.28125 C 31.335938 31.457031 30.636719 31.105469 30.671875 30.523438 C 30.652344 29.84375 31.546875 29.433594 32.074219 29.863281 C 32.597656 30.210938 32.460938 31.144531 31.839844 31.28125 Z M 31.839844 31.28125 " fill-opacity="1" fill-rule="nonzero"/><path fill="#00089f" d="M 23.886719 31.320312 C 23.363281 31.59375 22.605469 31.164062 22.722656 30.542969 C 22.722656 29.980469 23.402344 29.628906 23.886719 29.902344 C 24.488281 30.117188 24.527344 31.125 23.886719 31.320312 Z M 23.886719 31.320312 " fill-opacity="1" fill-rule="nonzero"/><path fill="#00089f" d="M 12.628906 28.171875 C 12.105469 28.539062 11.285156 28.074219 11.34375 27.433594 C 11.324219 26.710938 12.335938 26.324219 12.824219 26.847656 C 13.230469 27.21875 13.054688 27.898438 12.628906 28.171875 Z M 12.628906 28.171875 " fill-opacity="1" fill-rule="nonzero"/><path fill="#00089f" d="M 37.558594 26.578125 C 31.394531 26.578125 25.230469 26.710938 19.066406 26.691406 C 18.617188 26.558594 18.363281 26.050781 17.996094 25.742188 C 17.023438 24.710938 15.894531 23.855469 15.019531 22.726562 C 15.390625 22.570312 15.664062 22.277344 15.835938 21.929688 C 16.828125 22.007812 17.820312 21.949219 18.8125 21.988281 C 20.191406 23.039062 21.261719 24.4375 22.644531 25.488281 C 27.117188 25.46875 31.585938 25.46875 36.058594 25.429688 C 36.058594 24.144531 36.058594 22.863281 36.058594 21.578125 C 36.566406 21.113281 37.1875 20.761719 37.617188 20.199219 C 37.675781 19.1875 37.710938 18.15625 37.597656 17.144531 C 36.664062 16.308594 35.730469 15.433594 34.796875 14.578125 C 34.078125 14.074219 34.464844 13.0625 34.40625 12.324219 C 34.933594 12.59375 35.300781 13.082031 35.710938 13.488281 C 36.664062 14.480469 37.710938 15.394531 38.703125 16.347656 C 38.839844 16.503906 39.035156 16.640625 39.015625 16.875 C 39.035156 18.566406 38.957031 20.238281 38.976562 21.929688 C 38.957031 22.183594 39.015625 22.433594 38.917969 22.648438 C 38.511719 23.117188 37.945312 23.40625 37.558594 23.894531 C 37.460938 24.789062 37.578125 25.683594 37.558594 26.578125 Z M 37.558594 26.578125 " fill-opacity="1" fill-rule="nonzero"/><path fill="#00089f" d="M 15.078125 22.183594 C 14.59375 22.472656 13.796875 22.183594 13.71875 21.578125 C 13.621094 21.074219 14.144531 20.585938 14.632812 20.683594 C 15.332031 20.683594 15.699219 21.792969 15.078125 22.183594 Z M 15.078125 22.183594 " fill-opacity="1" fill-rule="nonzero"/><path fill="#00089f" d="M 18.34375 18.777344 C 17.78125 19.011719 17.179688 18.46875 17.296875 17.882812 C 17.375 17.183594 18.480469 16.988281 18.792969 17.613281 C 19.105469 18.039062 18.8125 18.644531 18.34375 18.777344 Z M 18.34375 18.777344 " fill-opacity="1" fill-rule="nonzero"/><path fill="#00089f" d="M 23.867188 17.847656 C 23.34375 18.175781 22.625 17.652344 22.703125 17.046875 C 22.664062 16.210938 23.964844 16.078125 24.257812 16.777344 C 24.507812 17.164062 24.238281 17.632812 23.867188 17.847656 Z M 23.867188 17.847656 " fill-opacity="1" fill-rule="nonzero"/><path fill="#00089f" d="M 28.730469 17.144531 C 28.164062 17.554688 27.328125 16.914062 27.523438 16.25 C 27.621094 15.6875 28.339844 15.433594 28.789062 15.726562 C 29.3125 16.058594 29.175781 16.855469 28.730469 17.144531 Z M 28.730469 17.144531 " fill-opacity="1" fill-rule="nonzero"/><path fill="#00089f" d="M 43.546875 13.898438 C 42.964844 14.113281 42.300781 13.453125 42.496094 12.867188 C 42.710938 12.226562 43.742188 12.03125 44.089844 12.671875 C 44.382812 13.140625 44.03125 13.761719 43.546875 13.898438 Z M 43.546875 13.898438 " fill-opacity="1" fill-rule="nonzero"/><path fill="#00089f" d="M 30.691406 13.414062 C 30.167969 13.683594 29.410156 13.257812 29.46875 12.652344 C 29.507812 12.03125 30.34375 11.699219 30.808594 12.089844 C 31.296875 12.402344 31.238281 13.21875 30.691406 13.414062 Z M 30.691406 13.414062 " fill-opacity="1" fill-rule="nonzero"/><path fill="#00089f" d="M 34.601562 11.796875 C 34.097656 12.089844 33.375 11.644531 33.472656 11.039062 C 33.492188 10.398438 34.386719 10.066406 34.835938 10.535156 C 35.261719 10.882812 35.144531 11.644531 34.601562 11.796875 Z M 34.601562 11.796875 " fill-opacity="1" fill-rule="nonzero"/><path fill="#00089f" d="M 39.773438 11.605469 C 39.386719 11.875 38.78125 11.796875 38.53125 11.351562 C 38.179688 10.769531 38.839844 9.949219 39.5 10.203125 C 40.144531 10.320312 40.394531 11.292969 39.773438 11.605469 Z M 39.773438 11.605469 " fill-opacity="1" fill-rule="nonzero"/></g></g></svg>